<?xml version="1.0" encoding="UTF-8"?>
<svg
	xmlns="http://www.w3.org/2000/svg"
	xmlns:xlink="http://www.w3.org/1999/xlink" viewBox="0 0 1288 550">
	<defs>
		<style>
			.image{
				isolation:isolate;
			}
			.mask{
				fill:none;
			}
			.paths{
				clip-path:url(#clip-path);
			}
			.background{
				fill:url(#bg-gradient);
			}
			.paths > path {				
				mix-blend-mode:screen;
				filter:url(#paths-opacity-filter);
				fill:url(#paths-gradient);
			}
			#spark-1 {
				animation: spark_1_move 4000ms linear infinite normal forwards
			}
			@keyframes spark_1_move {
				0% { offset-distance: 0% }
				27.5% { offset-distance: 0% }
				45% { offset-distance: 50% }
				62.5% { offset-distance: 100% }
				100% { offset-distance: 100% }
			}
			#spark-1-ellipse {
				animation: spark_1_ellipse_opacity 4000ms linear infinite normal forwards
			}
			@keyframes spark_1_ellipse_opacity {
				0% { opacity: 0 }
				27.5% { opacity: 0 }
				37.5% { opacity: 0.3 }
				47.5% { opacity: 0.3 }
				50% { opacity: 0.1 }
				52.5% { opacity: 0.3 }
				55% { opacity: 0.1 }
				62.5% { opacity: 0 }
				100% { opacity: 0 }
			}
			#spark-2 {
				animation: spark_2_move 4000ms linear infinite normal forwards
			}
			@keyframes spark_2_move {
				0% { offset-distance: 0% }
				22.5% { offset-distance: 46.913142% }
				45% { offset-distance: 100% }
				100% { offset-distance: 100% }
			}
			#spark-2-ellipse {
				animation: spark_2_ellipse_opacity 4000ms linear infinite normal forwards
			}
			@keyframes spark_2_ellipse_opacity {
				0% { opacity: 0 }
				15% { opacity: 0.3 }
				30% { opacity: 0.3 }
				32.5% { opacity: 0.1 }
				35% { opacity: 0.3 }
				37.5% { opacity: 0.1 }
				45% { opacity: 0 }
				100% { opacity: 0 }
			}
			#spark-3 {
				animation: spark_3_move 4000ms linear infinite normal forwards
			}
			@keyframes spark_3_move {
				0% { offset-distance: 0% }
				12.5% { offset-distance: 0% }
				35% { offset-distance: 50.120894% }
				57.5% { offset-distance: 100% }
				100% { offset-distance: 100% }
			}
			#spark-3-ellipse {
				animation: spark_3_ellipse_opacity 4000ms linear infinite normal forwards
			}
			@keyframes spark_3_ellipse_opacity {
				0% { opacity: 0 }
				12.5% { opacity: 0 }
				27.5% { opacity: 0.3 }
				42.5% { opacity: 0.3 }
				45% { opacity: 0.1 }
				47.5% { opacity: 0.3 }
				50% { opacity: 0.1 }
				57.5% { opacity: 0 }
				100% { opacity: 0 }
			}
			#spark-4 {
				animation: spark_4_move 4000ms linear infinite normal forwards
			}
			@keyframes spark_4_move {
				0% { offset-distance: 0% }
				55% { offset-distance: 0% }
				77.5% { offset-distance: 47.700053% }
				100% { offset-distance: 100% }
			}
			#spark-4-ellipse {
				animation: spark_4_ellipse_opacity 4000ms linear infinite normal forwards
			}
			@keyframes spark_4_ellipse_opacity {
				0% { opacity: 0 }
				55% { opacity: 0 }
				70% { opacity: 0.3 }
				85% { opacity: 0.3 }
				87.5% { opacity: 0.1 }
				90% { opacity: 0.3 }
				92.5% { opacity: 0.1 }
				100% { opacity: 0 }
			}
			#spark-5 {
				animation: spark_5_move 4000ms linear infinite normal forwards
			}
			@keyframes spark_5_move {
				0% { offset-distance: 0% }
				45% { offset-distance: 0% }
				67.5% { offset-distance: 49.144102% }
				90% { offset-distance: 100% }
				100% { offset-distance: 100% }
			}
			#spark-5-ellipse {
				animation: spark_5_ellipse_opacity 4000ms linear infinite normal forwards
			}
			@keyframes spark_5_ellipse_opacity {
				0% { opacity: 0 }
				45% { opacity: 0 }
				60% { opacity: 0.3 }
				75% { opacity: 0.3 }
				77.5% { opacity: 0.1 }
				80% { opacity: 0.3 }
				82.5% { opacity: 0.1 }
				90% { opacity: 0 }
				100% { opacity: 0 }
			}
		</style>
		<clipPath id="clip-path">
			<path class="mask" d="m6.52,51.62C34.88-19.02,1234.97-5.87,1270.88,24.52c35.91,30.39,11.28,316.85-36.44,403.31-47.71,86.46-1110.91,165.92-1148.04,94.46C49.28,450.83-21.84,122.26,6.52,51.62Z"/>
		</clipPath>
		
		<linearGradient id="bg-gradient" x1="34.79" y1="1525.8" x2="1257.03" y2="1525.8" gradientTransform="translate(0 1800.8) scale(1 -1)" gradientUnits="userSpaceOnUse">
			<stop offset=".01" stop-color="#010c36"/>
			<stop offset=".16" stop-color="#11255e"/>
			<stop offset=".27" stop-color="#17296c"/>
			<stop offset=".42" stop-color="#104a80"/>
			<stop offset=".59" stop-color="#08748c"/>
			<stop offset=".75" stop-color="#06a3a6"/>
			<stop offset=".88" stop-color="#03dac5"/>
			<stop offset="1" stop-color="#98f3ea"/>
		</linearGradient>

		<linearGradient id="paths-gradient" x1=".37" y1="240.27" x2="1300.6" y2="240.27" gradientUnits="userSpaceOnUse">
			<stop offset="0" stop-color="#000"/>
			<stop offset=".49" stop-color="#17296c"/>
			<stop offset=".7" stop-color="#16c3a644"/>
			<stop offset="1" stop-color="#5BEFF3CC"/>
		</linearGradient>

		<radialGradient id="spark-gradient-1" cx="0" cy="0" r="0.5" spreadMethod="pad" gradientUnits="objectBoundingBox" gradientTransform="translate(0.5 0.5)">
			<stop offset="9%" stop-color="#fff" />
			<stop offset="20%" stop-color="#ffffffd9" />
			<stop offset="89%" stop-color="#096d8a00" />
		</radialGradient>

		<radialGradient id="spark-gradient-2" cx="0" cy="0" r="0.5" spreadMethod="pad" gradientUnits="objectBoundingBox" gradientTransform="translate(0.5 0.5)">
			<stop offset="9%" stop-color="#fff" />
			<stop offset="20%" stop-color="#ffffffd9" />
			<stop offset="89%" stop-color="#0d173d00" />
		</radialGradient>

		<radialGradient id="spark-gradient-3" cx="0" cy="0" r="0.5" spreadMethod="pad" gradientUnits="objectBoundingBox" gradientTransform="translate(0.5 0.5)">
			<stop offset="9%" stop-color="#fff" />
			<stop offset="20%" stop-color="#ffffffd9" />
			<stop offset="89%" stop-color="#05a8a900" />
		</radialGradient>

        <filter id="paths-opacity-filter" xmlns="http://www.w3.org/2000/svg" x="0" y="0" width="1288" height="550" filterUnits="userSpaceOnUse" color-interpolation-filters="sRGB">
			<feColorMatrix type="matrix" values="1 0 0 0 0 0 1 0 0 0 0 0 1 0 0 0 0 0 0.75 0" />
        </filter>

		<filter id="spark-blur-filter" x="-150%" width="400%" y="-150%" height="400%">
         <feGaussianBlur stdDeviation="0,0" result="result" />
      	</filter>
	</defs>
	<g class="image">
		<path class="background" d="m6.52,51.62C34.88-19.02,1234.97-5.87,1270.88,24.52c35.91,30.39,11.28,316.85-36.44,403.31-47.71,86.46-1110.91,165.92-1148.04,94.46C49.28,450.83-21.84,122.26,6.52,51.62Z"/>
		<g class="paths">
			<path d="m1296.6,48.74c-57.68,24.78-114.25,53.45-167.17,87.3-36.5,23.46-71.54,50.33-105.84,76.85-43.14,33.53-86.88,67.32-133.25,96.32-82.29,50.65-174.18,91.74-270.19,106.69-37.85,5.59-79.58,5.48-117.36-.4-53.69-8.04-107.72-23.47-161.82-28.93-82.45-8.42-172.08-5.38-245.31,37.48-38.7,23.61-68.84,60.35-95.28,96.55v3.32c26.93-36.81,57.4-74.29,96.81-98.3,72.77-42.54,161.59-45.81,243.52-37.45,48.04,4.87,96.51,17.69,143.96,26.13,51.84,9.83,107.63,9.61,159.36-1.01,88.84-18.35,174.16-57.2,250.92-104.91,48.56-30.54,94.18-66.26,139.47-101.37,34.22-26.39,69.34-52.94,106.03-75.84,50.88-31.77,105.02-58.95,160.16-82.49v-1.65l-4,1.7h0Z"/>
			<path d="m278.65,266.27C185.92,250.36,93.47,228.06.37,214.29v-1.76c63.79,9.31,127.99,23.25,191.22,35.7,66.58,13.33,135.08,25.36,202.49,33.68,125.84,16.18,253.88,18.71,380.59,19.81,40.55.57,81.91,1.03,122.38-2.38,45.32-3.74,91.61-11.71,135.34-24.24,24.52-7.14,49.98-16.12,73.97-24.9,64.73-24,128.66-51.57,194.23-73.28v1.56c-65.03,21.57-128.45,48.9-192.67,72.68-23.76,8.69-49.03,17.58-73.29,24.71-40.32,11.65-83.13,19.54-124.87,23.73-47.87,4.98-96.71,4.21-144.74,3.54-83.63-.84-168.96-2.23-252.42-8.06-77.9-5.49-157.01-15.43-233.94-28.82Z"/>
			<path d="m274.28,268.42C183.05,252.88,92,231.36.38,218.18v-1.76c62.56,8.87,125.58,22.24,187.59,34.28,66.08,13.03,134.03,24.9,200.89,33.17,125.33,16.17,252.86,18.88,379.08,20.04,40.98.63,82.79,1.2,123.67-2.34,46.68-3.98,94.26-12.48,139.2-25.81,31.52-9.56,63.62-21.42,94.35-33.28,58.12-22.68,116.17-47.15,175.45-66.7v1.55c-62.57,20.67-123.64,46.85-185.13,70.44-27.2,10.32-55.85,20.71-83.69,29.13-41.07,12.19-84.7,20.47-127.29,24.88-48.38,5.2-97.75,4.28-146.3,3.55-83.33-.88-168.35-2.37-251.5-8.26-77.39-5.53-155.97-15.46-232.42-28.67Z"/>
			<path d="m1289.21,178.32c-60.61,20.48-119.87,46.1-179.45,69.32-27.55,10.6-56.47,21.29-84.69,29.9-44.88,13.43-92.42,22.13-139.06,26.2-41.32,3.68-83.55,2.98-124.96,2.3-119.18-1.24-239.7-3.75-358.16-17.98-67.16-7.81-135.49-19.07-201.88-31.83-66.4-12.53-133.68-26.83-200.63-36.08v1.77c61.31,8.42,123.12,21.2,183.9,32.8,71.84,13.96,145.46,26.49,218.17,34.9,118.18,14.19,238.4,16.7,357.3,17.94,41.56.7,83.97,1.38,125.44-2.32,47.73-4.18,96.35-13.14,142.24-26.98,35.83-11.06,71.95-24.84,106.81-38.66,54.94-22.01,110.13-45.04,166.37-63.56v-1.55c-3.38,1.12-8.01,2.67-11.39,3.82Z"/>
			<path d="m1290.53,176.46c-58.71,19.69-116.16,44.33-173.59,67.41-30.98,12.3-63.3,24.62-95.1,34.58-45.65,14-94.05,23.14-141.59,27.4-41.73,3.82-84.41,2.99-126.24,2.24-118.71-1.33-238.74-4.04-356.72-18.32-66.61-7.79-134.4-18.94-200.29-31.42-65.05-12.12-131.03-25.79-196.63-34.6v1.77c65.62,8.78,131.59,22.43,196.66,34.53,65.74,12.43,133.36,23.52,199.83,31.29,117.69,14.22,237.42,16.94,355.85,18.28,41.99.76,84.84,1.58,126.73-2.26,48.17-4.32,97.2-13.6,143.45-27.78,35.98-11.29,72.24-25.33,107.22-39.39,56.24-22.86,112.75-46.63,170.48-65.52v-1.54c-2.87.94-7.19,2.38-10.06,3.35h0Z"/>
			<path d="m1287.87,175.81c-59.35,19.92-117.33,45.01-175.26,68.63-31.1,12.52-63.54,25.06-95.47,35.23-46,14.34-94.81,23.79-142.78,28.19-42.15,3.95-85.26,2.99-127.51,2.16-118.24-1.44-237.77-4.38-355.26-18.7-66.07-7.78-133.31-18.81-198.68-31.01-63.67-11.7-128.31-24.77-192.52-33.13v1.77c64.24,8.34,128.88,21.39,192.57,33.07,71.61,13.36,145,25.15,217.43,33.08,110.89,12.48,223.7,15.04,335.19,16.47,47.16,1.01,95.23,1.85,142.18-3.62,44.22-4.96,89.4-14.23,131.85-27.59,35.63-11.44,71.6-25.56,106.25-39.69,57.58-23.74,115.48-48.28,174.75-67.54v-1.55c-3.78,1.23-8.96,2.96-12.73,4.23h0Z"/>
			<path d="m1294.39,171.97c-59.32,19.44-117.25,44.18-174.79,68.26-34.56,14.28-70.39,28.58-105.94,40.17-42.21,13.48-87.13,22.91-131.15,27.95-47.2,5.62-95.53,4.62-142.94,3.53-111.32-1.54-223.97-4.32-334.67-16.92-71.99-7.97-144.97-19.71-216.19-32.83-62.26-11.27-125.53-23.77-188.33-31.66v1.77c62.83,7.87,126.1,20.35,188.4,31.6,71.06,13.06,143.86,24.75,215.69,32.69,110.43,12.55,222.78,15.34,333.83,16.88,47.63,1.11,96.19,2.08,143.6-3.57,45.08-5.18,91.08-14.87,134.28-28.79,39.25-12.9,78.6-28.85,116.73-44.74,55.08-23.18,110.79-46.45,167.69-64.84v-1.54c-1.02.32-5.12,1.67-6.21,2.03h0Z"/>
			<path d="m200.81,268.43c-66.35-11.66-133.53-24.95-200.44-33.06v-1.77c61.37,7.44,123.22,19.37,184.06,30.21,70.67,12.82,143.04,24.45,214.44,32.44,110.25,12.68,222.43,15.7,333.3,17.38,47.87,1.2,96.68,2.35,144.33-3.47,44.86-5.25,90.61-15.1,133.55-29.14,39.18-13.08,78.43-29.23,116.47-45.29,57.08-24.37,114.92-48.65,174.08-67.56,0,.29,0,1.27,0,1.54-66.5,21.21-130.93,49.51-195.21,76.52-31.08,12.86-63.58,25.77-95.51,36.32-43.08,13.97-88.97,23.83-133.95,29.1-50.85,6.26-102.84,4.47-153.92,3.35-88.26-1.39-178.05-3.76-266.02-11.42-85.17-7.42-171.05-20.08-255.18-35.15h0Z"/>
			<path d="m212.66,272.72c-70.34-12.01-141.38-26.08-212.29-34.4v-1.78c65.36,7.68,131.08,20.37,195.9,31.63,71.02,12.56,143.76,23.71,215.5,31.29,103.53,11.12,208.9,14.03,312.94,15.8,48.32,1.31,97.62,2.61,145.71-3.39,45.24-5.4,91.34-15.54,134.58-29.9,39.34-13.32,78.73-29.76,116.9-46.08,58.51-25.32,117.87-50.35,178.69-69.63v.21l-1.55.28,1.55-.28v1.32c-64.18,20.36-126.53,47.27-188.32,73.85-34.57,14.67-70.47,29.36-106.04,41.4-39.09,12.99-80.93,22.65-121.72,28.42-56.09,8.44-113.57,6.64-170.06,5.15-87.89-1.51-177.31-4.07-264.9-11.85-78.96-7.04-158.82-18.48-236.9-32.05h0Z"/>
			<path d="m191.81,271.2c-63.33-10.83-127.57-22.88-191.44-30.09v-1.78c63.83,7.24,128.06,19.3,191.34,30.15,70.47,12.29,142.62,23.37,213.77,30.99,103.1,11.23,208.04,14.4,311.66,16.32,48.77,1.44,98.54,2.9,147.09-3.29,45.61-5.55,92.07-15.97,135.61-30.64,39.5-13.57,79.02-30.29,117.33-46.87,59.97-26.28,120.88-52.09,183.41-71.72v1.52c-65.91,20.69-129.81,48.43-193.06,76.01-34.69,14.9-70.71,29.86-106.42,42.11-39.36,13.27-81.51,23.19-122.61,29.12-28.57,4.07-59.28,6.43-88.11,6.57-27.54.24-56.04-.92-83.57-1.48-87.52-1.65-176.55-4.42-263.76-12.32-83.83-7.6-168.36-20.17-251.25-34.61h0Z"/>
			<path d="m455.57,308.4c-84.18-7.09-169.08-19.22-252.34-33.33-67.11-11.2-135.06-23.92-202.73-31.33-.02-.47-.28-1.39-.46-1.83,67.79,7.43,135.87,20.21,203.1,31.45,70.84,12.02,143.37,22.72,214.87,29.94,96.43,9.81,194.66,12.91,291.52,14.9,49.22,1.57,99.46,3.2,148.45-3.16,45.98-5.7,92.79-16.4,136.64-31.38,39.66-13.8,79.31-30.82,117.76-47.67,61.45-27.29,123.96-53.85,188.23-73.85v1.53c-48.19,15.13-95.86,33.85-142.21,53.86-48.04,20.82-95.92,42.75-145.05,60.92-59.24,22.09-122.57,36.1-185.62,41.02-36.38,2.77-73.8,1.65-110.22.52-86.91-1.93-175.27-4.24-261.93-11.59h0Z"/>
			<path d="m373.83,301.47c-63.51-7.44-128.19-17.49-191.23-28.11-60.23-10-121.47-20.85-182.22-27.18v-1.77c88.69,9.49,177.01,27.46,265.18,40.69,107.12,16.79,216.24,27.23,324.61,31.08,42.63,1.77,87.78,2.6,130.38,3.9,53.46,2.3,108.11,1.51,160.92-8.01,37.5-6.49,76.14-16.43,112-29.17,42.64-15.31,84.34-33.77,125.71-52.18,59.09-26.54,119.49-51.65,181.43-70.81v.16s-1.25.22-1.25.22l1.25-.22-.05,1.36c-59.16,18.39-117.01,42.16-173.51,67.46-69.79,31.05-140.46,62.94-215.59,78.72-37.33,8.08-77.09,13.45-115.27,14.7-31.56,1.05-64.02-.36-95.56-1.3-108.74-2.39-218.72-6.55-326.79-19.55h0Z"/>
			<path d="m367.56,302c-62.96-7.46-127.09-17.42-189.62-27.78-58.68-9.58-118.39-19.86-177.57-25.76v-1.79c86.86,8.91,173.42,26.1,259.73,39,106.49,16.62,214.92,27.3,322.63,31.4,42.59,1.89,87.7,2.8,130.27,4.2,25.4.91,51.96,1.71,77.38.9,27.7-.87,57.67-4.18,84.98-8.91,38.27-6.74,77.63-17.07,114.15-30.32,42.31-15.48,83.7-34.04,124.77-52.52,60.59-27.52,122.61-53.39,186.31-72.87v1.5c-60.92,18.71-120.4,43.23-178.4,69.49-70.09,31.54-141.03,63.97-216.57,80.11-37.65,8.29-77.78,13.81-116.32,15.04-31.83,1.03-64.58-.51-96.39-1.53-108.27-2.61-217.76-7.09-325.34-20.18h0Z"/>
			<path d="m343.1,300.12c-114.42-13.75-228.06-37.9-342.72-49.57v-1.79c90.86,8.98,181.33,26.92,271.65,39.94,106.78,16.22,215.51,26.04,323.44,29.98,39.04,1.64,80.51,2.49,119.5,4.03,51.21,2.44,103.7.99,154.24-8.35,38.55-6.9,78.17-17.46,114.92-30.97,42.48-15.73,84-34.6,125.22-53.35,62.1-28.54,125.79-55.13,191.27-74.96v1.52c-62.68,19.06-123.8,44.29-183.31,71.54-70.38,32.03-141.6,65-217.55,81.49-37.97,8.49-78.47,14.16-117.37,15.36-32.11,1-65.13-.67-97.21-1.79-113.92-2.94-228.98-8.33-342.06-23.07h0Z"/>
			<path d="m391.46,306.76c97.74,10.74,197.23,14.62,295.46,17.68,32.61,1.35,66.18,2.86,98.81,1.29,51.6-2.63,104.13-12.5,153.59-27.31,63.87-19.31,124.31-48.77,184.92-76.27,57.16-26.18,116.13-49.97,176.36-68.16v-1.41l-.73.13.73-.22v.09c-65.22,19.33-128.64,45.78-190.34,74.26-43.34,19.9-86.89,40.13-131.57,56.89-36.97,13.76-76.85,24.56-115.68,31.61-50.96,9.57-103.92,10.99-155.58,8.34-38.99-1.66-80.51-2.6-119.54-4.35-107.29-4.21-215.36-14.3-321.52-30.39-88.39-12.73-177.04-29.85-266-38.27v1.79c61.19,5.61,122.86,15.9,183.54,25.45,68.52,10.94,138.54,21.4,207.55,28.85h0Z"/>
			<path d="m366.69,304.75c-122.36-13.47-243.75-38.96-366.31-50.56v-1.79c92.88,8.42,185.33,26.25,277.64,39.12,106.48,15.73,214.86,25.04,322.4,29.18,42.42,1.55,86.51,3.34,128.87,4.87,42.23,1.42,85.93-1.68,127.5-9.37,39.1-7.2,79.24-18.24,116.43-32.26,44.85-17.02,88.54-37.59,132.04-57.76,63.21-29.58,128.37-56.52,195.33-76.39v.52l-4.21.73,4.21-.73v.99c-61.99,18.49-122.6,42.99-181.28,70.12-65.55,30.08-130.99,62.48-200.73,81.89-48.44,13.51-99.83,22.36-150.14,23.85-32.66.94-66.23-1.01-98.85-2.34-100.76-3.21-202.75-8.17-302.91-20.05h0Z"/>
			<path d="m360.25,304.62c-120.13-13.45-239.45-38.09-359.87-48.88v-1.79c90.93,7.82,181.51,24.85,271.85,37.45,105.88,15.64,213.62,25.25,320.55,29.69,42.54,1.68,86.73,3.61,129.22,5.28,42.6,1.58,86.68-1.56,128.6-9.43,39.88-7.45,80.74-18.88,118.6-33.43,46.58-17.98,91.86-39.75,137.07-60.88,62.79-29.52,127.72-56.06,194.34-75.64v1.5c-61.62,18.17-121.92,42.33-180.18,69.28-63.13,29.09-125.79,60.79-192.36,81.45-53.58,16.45-110.5,27.2-166.59,28.81-32.93.91-66.78-1.2-99.66-2.64-100.33-3.48-201.85-8.77-301.56-20.76Z"/>
			<path d="m353.83,304.32c-117.91-13.43-235.16-37.19-353.45-47.22v-1.79c94.77,7.78,189.1,25.48,283.27,38.23,106.23,15.3,214.31,24.24,321.52,28.69,46.32,1.43,93.73,5.2,140.04,5.19,37.99-.2,77.67-5.14,114.83-13,34.17-7.35,69.71-17.79,102.3-30.38,47.27-18.36,93.13-40.7,138.97-62.32,64.29-30.54,130.91-57.73,199.3-77.66v1.48c-63.35,18.51-125.32,43.3-185.08,71.22-63.37,29.47-126.22,61.66-193.08,82.67-53.97,16.78-111.35,27.8-167.93,29.35-33.2.87-67.31-1.41-100.45-2.97-99.89-3.75-200.96-9.39-300.22-21.49Z"/>
			<path d="m439.69,313.55c-81.7-7.12-164.09-18.77-245.18-30.88-64.22-9.43-129.37-19.6-194.13-24.41v-1.79c92.79,7.2,185.21,24.08,277.36,36.6,105.65,15.24,213.1,24.51,319.72,29.27,46.54,1.56,94.15,5.57,140.7,5.67,38.31-.12,78.34-5.15,115.79-13.18,34.91-7.6,71.11-18.42,104.34-31.5,46.94-18.53,92.48-40.97,138.02-62.65,65.8-31.55,134.1-59.46,204.29-79.65v.36l-3.03.51,3.03-.51v1.13c-58.43,16.88-115.85,39.19-171.17,64.4-40.46,18.52-80.53,38.73-121.16,56.88-73.61,33.86-153.1,57.94-234.13,64.25-38.97,3.06-79.03.74-117.97-1.46-71.69-3.17-144.99-6.62-216.49-13.04h0Z"/>
			<path d="m413.67,311.25c-74.64-7.27-150.11-18.12-224.28-29.01-62.51-9.04-125.98-18.59-189.02-22.99v-1.8c96.56,7.09,192.68,24.62,288.59,37.34,106.02,14.92,213.85,23.64,320.78,28.48,40.13,1.46,81.26,5.24,121.41,5.19,38.64-.04,79.01-5.16,116.76-13.34,35.13-7.74,71.55-18.77,104.97-32.06,49.22-19.64,96.82-43.6,144.58-66.46,65.36-31.37,133.35-58.84,203.13-78.71v1.49c-60.13,17.16-119.15,40.1-175.94,66.18-40.63,18.74-80.83,39.23-121.61,57.65-73.99,34.39-153.98,58.97-235.59,65.32-39.28,3.08-79.67.57-118.91-1.79-77.9-3.69-157.25-7.8-234.88-15.49h0Z"/>
			<path d="m388,308.56c-129.39-13.1-257.86-39.13-387.62-48.51v-1.8c94.56,6.47,188.74,23.22,282.62,35.72,105.46,14.88,212.69,23.95,319.05,29.14,40.38,1.6,81.73,5.61,122.13,5.65,38.97.06,79.68-5.15,117.72-13.49,35.36-7.88,72-19.1,105.6-32.62,49.41-19.92,97.14-44.23,145.08-67.38,66.84-32.37,136.49-60.48,208.02-80.65v1.48c-61.81,17.46-122.43,40.99-180.68,67.95-40.8,18.96-81.13,39.75-122.05,58.44-74.37,34.91-154.86,59.99-237.06,66.37-39.6,3.1-80.3.4-119.84-2.14-83.99-4.24-169.32-9.09-252.96-18.16Z"/>
			<path d="m311.14,299.17c-103.34-13-206.74-31.85-310.77-38.53v-1.8c92.57,5.89,184.84,21.85,276.7,34.13,104.91,14.83,211.54,24.27,317.33,29.79,40.62,1.74,82.2,5.98,122.86,6.12,44.86.16,91.21-6.61,134.7-17.41,29.95-7.56,61.6-17.73,90.2-29.38,51.72-21.07,101.53-46.98,151.76-71.29,66.36-32.08,135.64-59.72,206.68-79.57v.1l-.84.13.84-.13.04,1.37c-63.47,17.78-125.71,41.88-185.42,69.73-60.88,28.56-120.35,60.85-183.11,85.21-65.17,24.74-135.3,41.14-205.18,42.69-34.27.66-69.44-2.32-103.62-4.43-103.97-5.24-208.94-12.98-312.16-26.74h0Z"/>
			<path d="m393.48,308.5c-131.17-13.1-261.46-39.2-393.1-47.48-.02-.43-.02-1.42.18-1.8,90.54,5.36,180.86,20.51,270.67,32.56,104.36,14.77,210.4,24.57,315.63,30.45,40.86,1.89,82.67,6.37,123.57,6.62,45.23.28,91.96-6.61,135.77-17.6,30.13-7.69,61.96-18.03,90.71-29.86,51.92-21.36,101.87-47.64,152.29-72.23,67.79-33.02,138.67-61.31,211.41-81.39v.44l-3.89.63,3.89-.63v1.03c-61.61,17.04-122.13,40.13-180.16,66.84-44.59,20.56-88.29,43.81-132.79,64.55-75.12,35.97-156.62,62.01-239.98,68.43-40.24,3.1-81.57,0-121.71-2.9-77.11-4.5-155.66-9.43-232.49-17.65h0Z"/>
			<path d="m405.56,309.23c-135.23-12.95-269.47-40.04-405.18-47.95v-1.81c88.66,4.75,177.15,19.2,265.05,31.01,103.82,14.69,209.26,24.85,313.93,31.09,41.1,2.05,83.13,6.77,124.28,7.13,45.59.41,92.7-6.6,136.85-17.78,30.84-7.95,63.3-18.64,92.66-30.94,54.89-22.9,107.5-51.31,160.97-77.25,66.23-31.91,135.52-59.16,206.49-78.54v1.47c-66.74,18.26-132.05,43.58-194.57,73.12-43.39,20.6-86.09,43.41-129.64,63.67-78.59,37.42-164.44,63.67-251.8,67.45-35.06,1.33-71.08-1.62-106.02-4.25-70.56-4.43-142.67-9.11-213.01-16.43Z"/>
			<path d="m380.3,305.89c-126.61-13.35-252.65-37.9-379.93-44.5v-1.81c92.31,4.51,184.37,19.61,275.9,31.73,97.76,13.56,197.13,23.14,295.61,29.46,41.34,2.21,83.59,7.19,124.99,7.67,51.62.58,104.52-8.31,154.11-22.33,84.1-23.37,160.58-67.13,238.51-105.26,67.63-32.83,138.49-60.64,211.11-80.3v1.46c-68.35,18.53-135.21,44.4-199.12,74.8-43.57,20.83-86.4,43.94-130.11,64.47-78.99,37.96-165.39,64.7-253.37,68.39-35.33,1.28-71.61-1.86-106.8-4.67-76.59-5.08-154.59-10.57-230.9-19.13h0Z"/>
			<path d="m593.43,323.53c35.2,2.75,71.38,6.53,106.73,6.16,88.72-1.39,176.44-27.24,256.28-64.89,47.32-21.97,93.51-47.31,140.5-69.94,65.29-31.27,133.71-57.68,203.66-76.49v-1.44l-.2.03.2-.05v.02c-74.26,19.87-146.68,48.3-215.7,82.02-78.22,38.55-154.98,82.96-239.48,106.65-49.93,14.26-103.25,23.29-155.28,22.55-41.63-.61-84.13-5.84-125.69-8.22-97.96-6.67-196.79-16.59-294.04-30.1-89.53-11.9-179.7-26.25-270.04-30.21v1.82c95.95,4.18,191.56,19.9,286.68,32.28,101.36,13.83,204.31,23.11,306.38,29.81Z"/>
			<path d="m556.06,320.59c-97.11-7.02-195.04-17.22-291.48-30.57-87.56-11.64-175.83-25.19-264.21-28.55v-1.82c88.37,3.41,176.63,17.02,264.19,28.69,96.75,13.44,195.02,23.69,292.46,30.72,41.81,2.55,84.5,8.06,126.38,8.79,58.14.96,117.33-10.24,172.63-27.68,78.74-24.71,150.64-66.68,224.24-103.1,70.41-34.64,144.42-63.63,220.32-83.76v.33l-3.07.47,3.07-.47v1.13c-83.48,22.17-164.35,55.1-241.11,94.52-46.25,23.59-92.33,48.33-140.08,68.83-62.33,26.53-129.83,45.04-197.51,50.18-55.12,4.08-110.91-4.32-165.84-7.71h0Z"/>
			<path d="m589.18,323.02c-104.62-7.98-210.09-17.82-314.04-32.23-91.08-11.97-182.83-26.23-274.77-29.22v-1.82c86.39,2.84,172.75,15.76,258.33,27.17,96.25,13.36,193.97,23.93,290.87,31.31,42.04,2.73,84.94,8.51,127.07,9.37,58.57,1.15,118.22-10.24,173.88-27.95,79.1-25.03,151.2-67.56,225.1-104.39,71.82-35.55,147.41-65.14,224.97-85.48v.64l-5.99.93,5.99-.93v.82c-69.57,18.26-137.69,44.14-202.65,74.94-26.87,12.75-53.75,26.86-80.12,40.55-35.42,18.42-71.35,36.78-108.08,52.46-61.36,25.83-127.77,43.96-194.29,48.93-41.81,3.05-84.68-1.17-126.28-5.12h0Z"/>
			<path d="m592.49,323.51c-102.14-8.69-205.24-17.83-306.82-31.85-94.58-12.31-189.8-27.29-285.29-29.89v-1.82c84.42,2.3,168.89,14.52,252.5,25.67,95.75,13.27,192.9,24.15,289.26,31.89,42.27,2.92,85.38,8.97,127.74,9.97,59.01,1.34,119.1-10.22,175.13-28.21,83.07-26.49,158.16-72.38,236.01-110.64,70.16-34.21,143.98-62.61,219.58-82.23v1.45c-99.36,25.5-194.14,67.11-284.2,115.75-36.2,19-72.84,38.02-110.38,54.26-40.45,17.43-84.43,31.48-127.56,40.5-31.44,6.43-66.2,10.7-98.31,10.75-28.87.06-58.96-2.74-87.66-5.61h0Z"/>
			<path d="m563.71,321.01c-100.08-8.26-200.96-19.03-300.45-32.71-87.07-11.51-174.96-24.31-262.89-26.2v-1.83c87.92,1.96,175.81,14.81,262.86,26.36,89.83,12.31,181.09,22.57,271.44,30.27,42.49,3.1,85.8,9.44,128.4,10.58,65.2,1.64,131.24-12.43,192.53-33.96,78.23-27.65,149.46-71.55,223.68-107.94,70.68-34.45,145.11-62.87,221.3-82.45v1.47c-68.08,17.49-134.89,42.24-198.59,71.88-34.05,15.79-67.73,33.87-100.89,51.38-33.37,17.62-67.26,35.07-101.88,50.1-67.38,28.78-140.7,48.58-214.18,51.03-40.3,1.09-81.31-4.12-121.34-8h0Z"/>
			<path d="m621.47,327.32c-104.75-10.42-210.56-19.49-314.93-33.46-101.53-12.95-203.63-29.49-306.16-31.2v-1.83c85.9,1.4,171.85,13.56,256.89,24.85,89.35,12.23,180.08,22.78,269.91,30.81,42.71,3.3,86.22,9.92,129.06,11.21,71.38,1.96,143.36-14.84,209.74-40.19,73.35-28.46,140.79-70.09,211.28-104.61,71.3-34.73,146.43-63.23,223.34-82.77v.06l-.6.08.6-.08-.02,1.38c-88.32,22.51-173.97,56.7-254.65,98.97-48.33,25.23-96.19,52.2-146.01,74.44-86.76,38.46-183.23,61.68-278.46,52.34h0Z"/>
			<path d="m548.67,320.68c-93.61-8.61-188.11-19.2-281.25-31.88-88.42-11.64-177.72-24.47-267.04-25.33v-1.84c83.87.85,167.86,12.34,250.89,23.34,88.86,12.13,179.05,22.95,268.36,31.33,42.93,3.49,86.63,10.41,129.69,11.84,77.52,2.3,155.39-17.44,226.67-46.85,68.54-28.88,132.28-68.13,198.99-100.79,72-35.04,147.91-63.69,225.63-83.15v.35l-3.22.45,3.22-.45v1.11c-102.39,25.47-200.39,67.43-292.61,118.32-38.74,20.83-77.81,41.93-118.03,59.77-63.1,27.68-131.74,47.27-200.65,52.1-46.73,3.24-94.27-3.31-140.63-8.33Z"/>
			<path d="m652.88,330.75c-37.14-.3-74.99-5.7-111.84-9.76-76.58-7.47-154.41-16.02-230.71-26.03-102.75-13.12-206.14-29.81-309.96-30.28v-1.85c81.83.34,163.85,11.14,244.85,21.84,88.36,12.02,178,23.1,266.76,31.8,43.13,3.69,87.02,10.91,130.3,12.49,78.59,2.57,157.51-17.76,229.59-47.96,69.03-29.51,133.17-69.5,200.53-102.43,72.79-35.39,149.57-64.2,228.19-83.6v1.44c-88.41,21.89-174.26,55.51-255.04,97.47-52.02,27.18-103.15,56.97-156.63,81.26-73.74,33.08-154.79,55.76-236.06,55.59h0Z"/>
			<path d="m555.51,324.31c-94.51-10.38-190.07-20.52-284.26-33.56-89.64-11.96-180.35-24.31-270.87-24.56v-1.62L0,264.49c79.94-.16,160.15,9.93,239.29,20.35,87.86,11.87,176.93,23.19,265.14,32.22,43.34,3.89,87.41,11.39,130.9,13.13,79.66,2.85,159.63-18.09,232.5-49.09,69.47-30.13,133.98-70.84,201.95-104.02,73.59-35.76,151.28-64.71,230.82-84.07,0,.33,0,1.13,0,1.44-100.92,24.55-198.12,64.53-288.96,114.65-47.65,25.84-95.24,52.79-145.1,74.19-69.3,29.12-144.97,49.19-220.53,48.71-29.86-.35-60.89-4-90.49-7.69Z"/>
			<path d="m581.79,329.58c-99.79-12.21-200.73-22.33-300.33-36.13-93.05-12.18-187.03-25.81-281.08-24.97v-1.84c77.89-.69,156.13,8.77,233.25,18.82,87.36,11.69,175.87,23.21,263.53,32.52,43.54,4.07,87.78,11.87,131.5,13.75,80.73,3.12,161.75-18.45,235.41-50.26,69.87-30.74,134.7-72.14,203.26-105.54,74.34-36.11,152.88-65.17,233.28-84.5v1.44c-91.66,22.1-180.65,56.67-264.09,100.45-52.62,27.8-104.24,58.49-158.31,83.45-65.33,29.97-136.76,51.27-208.7,56.09-28.63,1.74-59.25.04-87.7-3.29h0Z"/>
			<path d="m586.62,332.5c98.76,11.98,199.09-13.7,288.32-55.2,54.82-25.64,107.13-57.16,160.6-85.41,83.77-43.86,173.18-78.3,265.21-100.24l-.15-1.38-.25.03.25-.06v.03c-81.14,19.22-160.38,48.43-235.36,84.8-70.1,34.11-136.13,76.89-207.54,108.38-73.59,31.83-154.59,53.48-235.27,50.13-43.92-2.01-88.37-10.08-132.09-14.33-87.11-9.57-175.09-21.24-261.96-32.72-75.36-9.7-151.9-18.52-228-17.3v1.85c97.6-1.55,195.09,12.96,291.64,25.49,97.76,13.23,196.73,23.77,294.61,35.92h0Z"/>
			<path d="m658.24,336.97c-58.49,3.75-117.05-8.72-174.97-14.6-86.25-9.76-173.36-21.45-259.43-32.57-73.86-9.31-148.91-17.45-223.46-15.64v-1.86c74.49-1.74,149.49,6.44,223.29,15.79,86.41,11.21,173.86,22.97,260.45,32.75,43.95,4.4,88.57,12.73,132.71,14.86,80.64,3.55,161.62-18.18,235.14-50.03,72.94-32.22,140.13-76.41,211.78-111.2,75.43-36.59,155.2-65.8,236.85-85.01v.17l-1.62.2,1.62-.2v1.27c-93.03,21.97-183.42,56.7-268,101.14-53.89,28.59-106.54,60.65-161.76,86.69-66.39,31.15-139.16,53.41-212.6,58.24h0Z"/>
			<path d="m599.15,338.87c-30.18-2.18-61.39-7.2-91.37-11.08-74.75-8.71-150.72-18.13-225.32-27.97-93.33-12-187.76-25.06-282.08-22.09v-1.87c73.12-2.28,146.82,5.27,219.29,14.25,85.97,10.9,172.94,22.69,259.04,32.62,44.17,4.52,88.98,13.08,133.36,15.31,80.61,3.71,161.57-18.12,235.03-49.99,74.45-32.95,142.8-78.54,215.98-114.01,75.63-36.66,155.64-65.85,237.51-85v.23l-2.1.25,2.1-.25v1.22c-93.78,22.02-184.9,56.96-270.06,101.87-54.3,28.94-107.3,61.52-162.92,87.96-83.08,39.03-176.01,65.43-268.46,58.54h0Z"/>
			<path d="m669.01,340.41c-27.67,2.84-57.86,2.8-85.46,0-30.21-2.89-61.47-8.2-91.6-11.78-86.4-10-173.71-21.61-260-32.44-76.55-9.4-154.35-17.53-231.57-14.37,0-.39.07-1.56-.22-1.86,77.25-3.1,155.06,5.08,231.64,14.52,80.43,10.12,161.96,20.98,242.48,30.44,40.44,4.23,81.66,11.82,122.2,14.95,79.2,6.27,159.42-13.29,232.36-43.12,78.22-32.39,149.03-80.37,224.61-118.06,78.5-38.96,161.8-69.72,247.16-89.69v.16l-1.47.18,1.47-.18v1.29c-94.14,22.09-185.63,57.14-271.06,102.36-53.88,28.83-106.44,61.39-161.5,88-62.17,30.04-130.22,52.12-199.03,59.61h0Z"/>
			<path d="m580.85,343.06c-26.51-2.57-54.33-7.06-80.72-10.55-74.18-8.87-149.59-18.25-223.7-27.68-91.25-11.31-183.73-22.99-275.85-18.41l-.21-.25v-1.61c76.38-3.8,153.41,3.77,229.18,12.82,80.12,9.76,161.3,20.51,241.45,29.97,40.66,4.28,82.09,12.01,122.85,15.19,73.75,5.97,148.76-10.88,217.35-37.17,85.77-32.89,161.98-86.1,243.87-126.93,77.98-38.7,160.74-69.22,245.52-89.16v1.45c-93.25,21.99-183.91,56.65-268.58,101.39-55.93,29.91-110.26,64.07-167.42,91.68-87.5,41.86-186.14,69.61-283.75,59.26Z"/>
			<path d="m603.57,347.62c-34.97-1.71-70.71-7.83-105.37-12.44-68.33-8.19-138.03-16.69-206.33-25.16-96.46-11.65-194.17-24.31-291.5-18.42,0-.42,0-1.48,0-1.88,75.94-4.58,152.65,2.37,228.06,11.03,79.85,9.35,160.74,19.89,240.6,29.28,40.9,4.28,82.57,12.12,123.56,15.32,68.14,5.57,137.8-8.64,201.79-31.49,90.16-31.73,169.45-87.2,253.92-130.68,79.94-40.6,165.01-72.52,252.28-93.24v1.45c-93.42,22.24-184.23,57.2-268.94,102.35-55.58,29.98-109.63,64.15-166.45,91.82-80.85,38.89-171.17,66.17-261.63,62.06Z"/>
			<path d="m724.16,338.6c-42.71,9.74-88.79,14.52-132.51,10.93-41.13-3.18-82.98-11.07-124.02-15.32-79.28-9.22-159.6-19.4-238.92-28.2-75.54-8.21-152.39-14.52-228.34-8.94v-1.9c75.89-5.49,152.67.87,228.13,9.12,79.65,8.89,160.32,19.14,239.94,28.38,41.16,4.25,83.09,12.13,124.35,15.32,62.4,5.09,126.54-6.62,185.71-26.1,35.63-11.86,71.88-27.37,105.08-44.82,57.24-29.58,112.03-65.02,169.39-94.36,78.51-39.88,162.01-71.31,247.63-92.01v.41l-3.88.51,3.88-.51v1.02c-93.12,22.6-183.64,57.71-267.99,103.11-53.9,29.35-106.5,62.63-161.5,89.95-46.18,23.08-96.62,41.72-146.95,53.4h0Z"/>
			<path d="m764.32,330.55c-54.78,16.47-113.96,25.98-171.2,21.38-41.41-3.14-83.54-11.05-124.86-15.22-84.1-9.54-169.16-20.13-253.37-28.63-71-6.99-143.29-11.55-214.51-5.41v-1.91c71.13-6.05,143.33-1.44,214.22,5.59,84.57,8.59,170,19.26,254.46,28.82,41.45,4.18,83.66,12.09,125.2,15.23,62.95,5.03,127.62-6.99,187.24-26.82,35.04-11.8,70.84-27.12,103.51-44.31,57.92-29.99,113.28-66.07,171.25-95.96,77.46-39.62,159.87-70.92,244.34-91.86,0,.25,0,1.22,0,1.45-91.46,22.75-180.4,57.48-263.3,102.27-53.36,29.17-105.46,62.31-159.78,89.73-35.66,18.19-74.87,33.97-113.19,45.65Z"/>
			<path d="m804.89,319.67c-66.25,24.35-138.48,39.9-209.31,34.43-47.76-3.84-96.22-12.63-143.94-17.09-77.87-8.62-156.8-17.98-234.8-25.29-71.68-6.59-144.67-10.5-216.46-3.38v-1.9c71.69-7.04,144.58-3.06,216.16,3.56,84.45,8,169.77,18.23,254.09,27.52,41.75,4.08,84.27,11.98,126.1,15.06,63.53,4.95,128.75-7.42,188.84-27.61,34.48-11.74,69.86-26.89,102.04-43.85,58.49-30.32,114.31-66.96,172.74-97.35,76.16-39.25,157.2-70.38,240.24-91.55v.27l-2.56.36,2.56-.36v1.18c-89.4,22.89-176.39,57.14-257.5,101.13-78.31,43.16-153.68,94.23-238.21,124.89Z"/>
			<path d="m877.97,291.15c-82.27,40.2-174.22,69.03-266.6,65.56-46.33-2.04-93.08-11.18-139.21-15.51-83.85-8.95-168.72-18.61-252.73-25.91-72.5-6.16-146.31-9.37-218.78-1.26-.23-.45-.33-1.38-.28-1.88,72.46-8.07,146.26-4.78,218.74,1.42,78.25,6.83,157.46,15.79,235.57,24.13,48.21,4.31,97.09,13.05,145.31,16.81,70.62,5.28,142.59-10.45,208.56-34.88,90.21-32.9,169.25-89.08,253.5-133.94,75.56-39.58,156.04-71.01,238.55-92.71v1.46c-85.98,22.67-169.69,55.87-247.92,98.12-58.62,32.06-114.8,68.9-174.71,98.6Z"/>
			<path d="m885.7,290.63c-83.33,41.22-176.58,70.95-270.4,67.73-46.68-1.92-93.8-11.03-140.29-15.21-83.78-8.62-168.6-17.76-252.55-24.44-73.65-5.71-148.62-8.27-222.07,1.07v-1.93c73.35-9.24,148.2-6.61,221.73-.87,78.21,6.25,157.37,14.72,235.42,22.72,48.53,4.14,97.74,12.82,146.28,16.46,71.29,5.13,143.88-10.99,210.4-35.84,91.08-33.49,170.75-90.59,255.86-135.99,73.09-38.35,150.88-69.02,230.54-90.68v1.48c-83.33,22.72-164.53,55.24-240.46,96.39-58.58,32.13-114.67,69.14-174.44,99.1h0Z"/>
			<path d="m893.77,289.88c-84.41,42.25-178.97,72.89-274.26,69.92-47.03-1.8-94.53-10.86-141.39-14.89-83.73-8.27-168.52-16.89-252.44-22.93-74.79-5.26-150.9-7.06-225.31,3.46v-1.94c74.31-10.43,150.29-8.53,224.96-3.24,78.17,5.66,157.31,13.64,235.32,21.29,48.86,3.95,98.41,12.57,147.27,16.1,71.98,4.96,145.19-11.56,212.26-36.82,90.78-33.64,170.25-90.6,254.95-136.29,71.48-37.9,147.58-68.31,225.47-90.22v.11l-.98.16.98-.16-.17,1.41c-80.5,22.74-159.02,54.5-232.5,94.46-58.53,32.2-114.53,69.36-174.16,99.58h0Z"/>
			<path d="m901.87,289.05c-85.43,43.21-181.21,74.68-277.87,71.98-47.4-1.67-95.28-10.69-142.51-14.56-83.69-7.92-168.47-16-252.36-21.4-76-4.78-153.32-5.81-228.76,5.96v-1.95c75.32-11.64,152.51-10.55,228.38-5.72,78.15,5.06,157.28,12.54,235.25,19.84,49.2,3.76,99.09,12.3,148.29,15.72,72.67,4.8,146.52-12.13,214.15-37.79,90.48-33.79,169.52-90.45,253.78-136.41,69.87-37.43,144.25-67.65,220.37-89.75v.43l-4,.72,4-.72v1.04c-77.71,22.63-153.54,53.7-224.6,92.45-58.57,32.32-114.55,69.67-174.13,100.17Z"/>
			<path d="m909.04,288.63c-72.63,37.15-151.85,64.54-233.39,72.19-48.97,4.51-98.86-2.58-147.38-8.59-93.07-9.58-187.32-17.32-280.69-23.38-82.18-4.98-165.8-6.2-247.21,7.75v-1.97c71.53-12.13,145.06-12.7,217.36-9.09,64.96,3.24,131.08,8.83,195.89,14.33,37.83,3.42,78.04,6.58,115.76,10.85,32.9,3.95,67.23,8.8,100.39,9.8,59.43,1.96,118.96-10.61,175.11-29.34,36.21-12.17,72-27.43,105.8-45.23,57.31-29.86,111.41-65.89,167.8-97.36,70.25-38.78,145.26-69.98,222.11-93.05v1.5c-74.75,22.48-147.76,52.77-216.25,90.23-59,32.65-115.32,70.48-175.31,101.36Z"/>
			<path d="m915.81,288.39c-73.05,37.49-152.73,65.19-234.76,73.15-49.39,4.71-99.75-2.31-148.73-8.21-93.14-9.26-187.49-16.42-280.93-21.78-83.49-4.46-168.41-4.72-250.89,10.57-.1-.48-.15-1.46-.12-1.95,72.66-13.36,147.51-14.82,221.16-11.7,64.95,2.73,131.07,7.86,195.88,13,37.92,3.21,78.22,6.2,116.03,10.35,33.2,3.87,67.85,8.67,101.3,9.58,60.01,1.8,120.07-11.09,176.7-30.13,38.45-13.01,76.3-29.5,112.03-48.74,55.69-29.61,108.46-64.82,163.47-95.61,67.64-37.47,139.8-67.85,213.65-90.77v1.51c-72.99,22.7-144.31,52.77-211.18,89.8-58.33,32.67-114.17,70.22-173.61,100.93Z"/>
			<path d="m922.95,287.94c-73.52,37.87-153.71,65.91-236.31,74.18-49.82,4.9-100.64-2.04-150.08-7.82-93.23-8.94-187.68-15.52-281.22-20.16-84.94-3.9-171.32-3.24-254.97,13.61v-1.99c73.82-14.72,150.06-17.04,225.11-14.45,64.94,2.21,131.08,6.87,195.89,11.64,38.02,3.01,78.41,5.81,116.31,9.84,33.51,3.79,68.47,8.52,102.22,9.35,60.59,1.63,121.18-11.57,178.31-30.92,38.03-12.97,75.51-29.31,110.89-48.34,55.56-29.54,108.19-64.73,162.91-95.73,66.03-37.07,136.5-67.22,208.59-90.36v1.52c-69.91,22.48-138.29,51.66-202.48,87.34-58.87,33.09-115.17,71.18-175.16,102.3h0Z"/>
			<path d="m671.54,364.02c-39,1.67-79.19-2.93-117.86-7.46-29.95-3.55-62.79-5.81-92.89-8.11-71.58-5.21-144.43-9.98-216.16-12.3-81.53-2.67-164.32-.05-244.29,17.21,0-.12.04-1.94.03-2,139.69-29.59,283.88-15.5,425.1-7.05,38.12,2.8,78.6,5.42,116.6,9.32,29.37,3.2,60.4,7.23,89.93,8.66,62.08,3.46,124.52-8.7,183.33-27.97,43.83-14.34,86.74-33.1,127.15-55.3,53.83-29.19,105.05-63.48,158.27-93.73,63.33-35.7,130.86-64.96,199.85-87.83v.07l-.62.13.62-.13v1.46c-59.83,19.85-118.72,44.76-174.43,74.27-31.25,16.56-61.78,35.34-91.96,53.78-39.97,24.52-80.45,49.1-122.57,69.78-75.04,36-156.54,62.8-240.1,67.2Z"/>
			<path d="m936.99,287.12c-74.26,38.38-155.21,66.92-238.63,75.78-50.69,5.31-102.47-1.48-152.84-7.01-93.44-8.3-188.12-13.67-281.86-16.85-87.93-2.72-177.27.04-263.28,20v-2.02c134.87-30.91,274.76-19.91,411.65-12.55,44.22,2.88,90.53,5.61,134.63,9.91,29.64,3.12,60.95,7.09,90.74,8.45,62.68,3.31,125.68-9.16,184.99-28.74,38.81-12.84,77.18-29.05,113.34-48.1,57.02-29.85,110.75-66,166.37-98.28,62.8-36.29,129.9-66.02,198.51-89.48v.27l-2.4.54,2.4-.54v1.27c-64.96,22.28-128.61,50.29-188.39,84.1-58.79,33.57-115.13,71.95-175.21,103.27h0Z"/>
			<path d="m944.56,286.41c-74.63,38.71-156.28,67.59-240.15,76.73-51.13,5.5-103.39-1.2-154.24-6.6-93.55-7.97-188.36-12.74-282.21-15.18-89.41-2.12-180.17,1.85-267.31,23.31,0-.12-.32-1.88-.28-1.96,135.93-33.29,277.54-23.65,415.98-16.97,44.33,2.62,90.74,5.12,134.94,9.28,29.91,3.04,61.51,6.95,91.56,8.23,63.28,3.15,126.84-9.62,186.67-29.51,39.09-13.03,77.75-29.43,114.16-48.71,57.32-30.13,111.3-66.65,167.21-99.23,60.08-34.87,124.2-63.69,189.7-86.78v.46l-4.05.96,4.05-.96v1.1c-61.76,21.85-122.36,48.89-179.34,81.24-59.31,33.98-116.08,72.9-176.7,104.59h0Z"/>
			<path d="m952.82,285.32c-36.64,19.39-75.56,35.94-114.87,49.13-44.52,14.84-91.28,26.06-138.14,29.83-52.5,4.33-105.84-3.65-158.03-8.36-89.33-6.5-179.87-10.86-269.43-12.29-91.11-1.48-183.52,3.73-271.98,26.9v-2.04c137-35.75,280.37-27.52,420.42-21.54,44.43,2.36,90.95,4.64,135.26,8.64,30.18,2.96,62.07,6.81,92.39,8.01,60.28,2.82,120.94-8.68,178.18-26.95,42.52-13.59,84.47-31.09,123.93-51.97,55.62-29.25,108.07-64.58,162.08-96.6,59.44-35.32,122.99-64.55,187.96-88.16v.62l-5.43,1.34,5.43-1.34v.94c-59.99,21.87-118.86,48.65-174.2,80.53-58.15,33.75-114.01,71.98-173.58,103.29h0Z"/>
			<path d="m960.03,284.78c-36.59,19.4-75.49,35.95-114.73,49.22-48.35,16.2-99.17,28.23-150.19,31.18-44.86,2.48-90.8-3.2-135.37-7.52-38.14-3.38-78.8-5.23-117.05-7.15-87.6-3.7-176.29-7.08-263.91-2.38-60.01,3.5-120.38,12.49-178.41,28.29.01-.05-.07-1.93-.07-2.03,138.1-38.21,283.25-31.53,424.98-26.24,44.54,2.09,91.17,4.15,135.59,8.01,30.45,2.87,62.63,6.66,93.22,7.78,57.21,2.51,114.89-7.75,169.45-24.43,45.75-14,90.79-32.43,133.11-54.75,54.2-28.46,105.4-62.76,157.79-94.31,58.82-35.7,121.73-65.42,186.16-89.5v1.57c-56.78,21.32-112.57,47.07-165.07,77.45-58.79,34.25-115.23,73.11-175.5,104.82h0Z"/>
			<path d="m978.12,278.4c-83.04,45.14-182.17,80.74-276.94,86.91-40.72,2.33-82.79-1.9-123.26-5.94-36.73-3.66-75.97-5.33-112.85-7.1-89.16-3.61-179.43-6.51-268.6-1.95-66.08,3.6-132.44,13.8-196.1,32.04v-2.06c50.95-14.55,103.93-24,156.68-28.9,90.41-7.9,182.17-5.07,272.77-2.16,40.03,1.55,82.45,3.47,122.4,6.24,30.73,2.42,63.13,6.35,93.91,8.09,58.56,3.95,117.95-4.8,174.09-21.34,49.54-14.45,98.21-34.06,143.85-58.14,54.78-28.8,106.45-63.62,159.36-95.61,56.05-34.17,115.91-62.88,177.16-86.45v1.61c-53.55,20.7-106.24,45.39-155.89,74.23-55.91,32.67-109.64,69.61-166.58,100.53h0Z"/>
			<path d="m1008.8,264.69c-37.57,21.87-77.16,41.43-117.75,57.05-48.36,18.64-99.23,33.39-150.66,40.43-47.42,6.83-96.6,3.68-144.06-1.1-29.27-3.01-61.18-5.05-90.6-6.33-77.8-3.58-156.85-5.59-234.73-4.31-91.19,1.16-183.15,11.4-270.62,38.01v-2.07c48.67-14.51,99.26-24.69,149.72-30.44,88.23-9.77,178.05-8.04,266.66-6.07,46.07,1.32,94.22,3.17,140.21,6.15,31.01,2.33,63.7,6.19,94.75,7.86,59.11,3.82,119.02-5.17,175.65-21.97,49.33-14.49,97.82-34.04,143.31-58,53.18-27.93,103.43-61.6,154.59-92.98,55.46-34.45,114.62-63.66,175.33-87.65v1.62c-50.33,20.02-99.92,43.6-146.71,70.89-48.84,28.61-96.04,60.64-145.09,88.91h0Z"/>
			<path d="m1024.5,259.19c-81.94,48.75-172.27,85.61-266.59,101.33-37.75,6.3-77.58,7.08-115.7,4.33-43.42-3.38-88.34-8.13-131.91-9.4-92.17-3.64-185.47-5.52-277.64-1.06-78.55,3.76-157.21,16.62-232.29,40.21v-2.08c50.11-15.59,102.19-26.81,154.28-33.25,88.14-10.62,177.98-9.63,266.61-8.22,46.14,1.03,94.36,2.63,140.42,5.45,31.28,2.23,64.27,6.03,95.59,7.62,55.88,3.42,112.65-4.34,166.41-19.51,52.85-14.75,104.73-35.29,153.31-60.8,51.66-27.08,100.56-59.64,150.05-90.4,54.92-34.66,113.35-64.44,173.54-88.83v1.65c-47.12,19.28-93.62,41.73-137.55,67.45-46.68,27.44-91.87,58.06-138.55,85.5h0Z"/>
			<path d="m1040.15,253.65c-84.55,51.36-177.97,90.38-275.82,106.88-33.41,5.6-68.97,7.15-102.8,5.44-42.36-2.17-86.01-7.72-128.44-9.04-102.87-4-206.88-5.73-309.66,1.04-75.6,5.11-151.01,19.44-223.06,42.93v-2.1c80.62-26.42,165.36-40.47,250.04-44.26,94.09-4.43,189.32-2.95,283.42.83,52.1,1.56,105.03,9.65,157.18,9.73,43.16.09,87.06-6.88,128.73-17.8,56.76-14.99,112.37-36.66,164.36-63.92,52.32-27.43,101.75-60.51,151.81-91.76,52.21-33.07,107.63-61.79,164.69-85.55v1.67c-43.92,18.48-87.37,39.76-128.44,63.91-44.5,26.25-87.68,55.44-132.01,81.98h0Z"/>
			<path d="m1070.02,239.26c-27.69,17.19-56.27,34.02-85.29,48.85-56.96,28.81-117.81,51.49-180.05,65.79-30.54,6.9-63.04,11.69-94.36,12.73-41.78,1.42-84.85-3.31-126.44-6.57-94.44-5.78-190.16-6.29-284.71-3.39-52.09,1.92-105.28,5.75-156.69,14.59-48.05,8.06-95.91,20.61-142.11,36.02v-2.1c60.63-20.35,123.74-34.95,187.3-42.31,110.02-11.9,221.78-10.47,332.26-7.5,58.7.78,118.1,9.7,176.78,9.98,39.69-.02,80.29-5.96,118.77-15.42,60.33-14.97,119.33-37.59,174.43-66.31,50.92-26.6,99.11-58.64,147.63-89.28,51.76-33.2,106.46-62.54,163.05-86.66v.08l-.62.19.62-.19v1.62c-39.1,16.9-77.96,36.13-114.76,57.56-39.16,22.92-77.3,48.36-115.82,72.31Z"/>
			<path d="m1099.56,224.62c33.02-21.03,66.2-42.81,100.08-62.43,32.47-18.73,66.77-35.85,101.04-51.06l-.09-1.42-1.9.59,1.9-.83v.24c-56.37,23.87-110.12,54.46-161.55,87.53-46.64,29.75-93.22,60.46-142.29,86.12-55.19,28.75-114.27,51.42-174.65,66.53-38.81,9.62-79.76,15.7-119.8,15.81-59.07-.14-118.91-8.97-178-9.5-63.13-1.81-127.81-1.89-190.94-.07-50.96,1.6-103.21,4.57-153.73,11.63-60.9,8.46-121.21,23.86-179.27,43.97v2.11c47.67-16.42,96.96-30.1,146.63-38.93,56.28-10.25,114.44-14.43,171.55-16.62,94.27-2.89,189.79-3.24,283.92,3.41,37.22,3.07,76.19,6.56,113.58,5.22,35.55-1.27,72.05-7.23,106.54-15.74,59.04-14.77,116.89-36.76,171.08-64.42,36.27-18.66,71.51-40.22,105.89-62.14h0Z"/>
			<path d="m1114.89,218.83c-36.95,23.75-74.69,47.21-113.75,67.35-54.49,27.88-112.67,50.05-172.04,65.01-34.79,8.64-71.59,14.74-107.45,16.09-37.7,1.43-76.99-1.99-114.53-4.98-99.3-6.63-199.98-5.62-299.36-1.13-55.71,2.93-112.41,8.29-167.11,19.55-47.48,9.51-94.55,23.63-140.18,39.74,0-.13-.11-2-.1-2.09,55.84-19.86,113.64-36.01,172.2-45.45,54.19-8.89,110.19-12.61,165.02-14.77,63.13-2.31,127.82-2.63,190.98-1.1,59.5.27,119.74,9.02,179.21,9.03,36.46-.2,74.02-5.29,109.5-13.49,63.9-14.93,126.34-38.48,184.61-68.61,47.79-24.85,93.23-54.58,138.49-83.7,23.07-14.76,46.85-29.84,70.64-43.42,28.87-16.46,59.29-31.8,89.57-45.49v.42l-3.23,1.04,3.23-1.04v1.32c-32.89,14.96-65.73,31.72-96.89,49.99-29.94,17.64-59.58,36.96-88.82,55.73h0Z"/>
			<path d="m1123.03,217.62c-37.06,23.92-74.92,47.56-114.11,67.84-54.92,28.22-113.6,50.64-173.47,65.83-35.08,8.78-72.18,15-108.35,16.44-42.81,1.74-86.99-2.8-129.65-5.73-68.21-3.83-138-3.56-206.28-1.9-58.66,1.68-118.56,4.81-176.77,12.46-73.12,9.44-144.92,29.34-214.02,54.74v-2.13c57.23-20.91,116.36-38.43,176.49-48.71,54.08-9.42,110.03-13.64,164.83-16.21,63.12-2.79,127.82-3.5,191-2.24,59.89.02,120.55,8.69,180.42,8.56,36.77-.28,74.65-5.5,110.42-13.83,64.53-15.2,127.59-39.06,186.39-69.62,47.87-25.01,93.39-54.92,138.71-84.2,48.59-31.76,99.09-61.39,151.96-85.49v.61s-4.65,1.55-4.65,1.55l4.65-1.55v1.14c-29.89,13.92-59.8,29.44-88.21,46.14-30.14,17.81-59.94,37.34-89.36,56.3h0Z"/>
			<path d="m1145.17,207.34c-41.22,26.82-83.01,53.68-126.62,76.46-55.97,29.08-115.84,52.11-176.96,67.72-35.36,8.9-72.77,15.25-109.25,16.78-43.15,1.85-87.69-2.65-130.7-5.47-68.31-3.64-138.18-3.02-206.54-.9-62.93,2.25-127.01,6.16-189.28,15.79-70.28,10.76-139,31.56-205.45,56.51.02-.06-.15-1.96-.15-2.07,55.11-20.56,111.82-38.74,169.64-49.94,52.52-10.47,107.02-15.64,160.43-18.91,62.12-3.64,125.84-5.02,188.06-4.48,27.09.32,57.42.79,84.43,2.48,27.94,1.78,58.07,4.46,86.06,5.49,42.93,1.81,87.23-1.99,129.19-11.2,69.39-15.16,137.05-40.51,199.98-73.34,45.33-23.82,88.62-52.03,131.51-79.93,48.46-31.84,98.45-62.18,151.07-86.7v1.78c-54.23,25.35-105.46,57.1-155.42,89.92h0Z"/>
			<path d="m1167.33,197.21c-44.6,29.05-89.41,58.71-136.44,83.74-54.27,28.86-112.4,51.82-171.68,68.09-34.33,9.31-70.61,16.38-106.1,19.22-43.82,3.43-89.26-.2-132.98-3.35-67.48-4.42-136.59-3.52-204.15-1.5-68.58,2.52-138.3,6.85-206.09,17.97-71.79,11.66-141.68,34.14-209.45,60.14v-2.13c56.42-21.5,114.3-41.07,173.56-53.15,52.38-11,106.8-16.66,160.15-20.34,62.09-4.12,125.8-5.89,188.03-5.62,27.17.2,57.59.57,84.68,2.19,28.16,1.71,58.54,4.35,86.74,5.33,43.27,1.73,87.9-2.18,130.18-11.53,69.11-15.2,136.54-40.43,199.3-73.02,43.81-22.95,85.77-50.04,127.13-77.08,48.44-31.92,98.01-62.99,150.45-87.99v1.81c-46.25,22.24-90.46,49.12-133.34,77.23h0Z"/>
			<path d="m1160.4,205.53c-41.69,27.37-83.98,54.75-128.16,77.96-60.39,31.5-125.15,56.1-191.4,72-36.95,8.76-76.09,14.38-114.1,14.88-48.57.8-98.25-5.42-146.76-6.68-75.09-1.7-151.52.03-226.46,5.07-58.21,4.08-117.47,10.31-174.51,22.92-61.09,13.11-120.49,34.37-178.64,56.91-.07-.17.32-2.06.35-2.28,57.63-22.38,116.54-43.35,177.1-56.32,107.96-22.93,219.63-26.83,329.67-28.45,43.46-.27,88.9.34,132.23,3.73,33.74,2.4,69.56,4.63,103.4,3.09,24.21-1.13,50.25-4.48,74-9.16,73.26-14.76,144.62-41.09,210.96-75.35,42.15-22.02,82.63-47.92,122.37-74,48.54-32.03,97.81-63.82,150.14-89.38v1.84c-48.75,23.96-94.9,53.36-140.2,83.23h0Z"/>
			<path d="m1174.78,200.16c-45.45,29.94-91.33,60.15-139.66,85.29-41.81,21.69-86.28,40.03-131.09,54.54-45.65,14.67-93.58,25.9-141.44,29.93-49.44,4.09-100.33-.84-149.69-3.73-45.27-2.26-92.73-1.82-138.03-.82-97.6,3.15-196.62,8.7-292.11,30.34-62.47,14.05-122.94,36.83-182.38,60.25v-2.14c59.03-23.31,119.12-45.87,181.18-59.79,101.76-22.86,207.26-27.94,311.23-30.61,44.67-.66,91.43-.83,136.01,2.1,33.78,2.19,69.56,4.95,103.43,4.37,29.54-.49,60.73-4.03,89.68-9.8,73.22-14.82,144.54-41.11,210.91-75.27,40.48-21.09,79.45-45.8,117.57-70.85,48.77-32.17,97.88-64.72,150.21-90.89v.16l-1.12.41,1.12-.41v1.69c-43.56,21.99-85.13,48.35-125.82,75.22h0Z"/>
			<path d="m1197.96,190.65c-49.41,32.45-98.75,65.95-151.11,93.56-39.88,21.07-82.35,39-125.05,53.51-49.38,16.63-101.22,29.44-153.22,33.94-49.83,4.24-101.13-.61-150.89-3.35-51.29-2.32-104.54-1.36-155.83.48-95.42,4.33-192.24,11.33-285.09,34.95-60.37,15.09-118.67,38.44-176.39,61.37v-2.14c57.28-22.83,115.19-45.96,175.14-60.91,104.81-26.33,214.14-32.51,321.79-35.97,44.79-.93,91.68-1.31,136.4,1.5,34.05,2.09,70.11,4.78,104.25,4.12,29.67-.56,61.02-4.17,90.09-10,73.18-14.9,144.48-41.14,210.88-75.17,38.79-20.15,76.25-43.66,112.76-67.64,48.59-31.98,97.12-64.95,148.92-91.6v1.89c-35.28,18.34-69.43,39.64-102.64,61.46h0Z"/>
			<path d="m414.44,374.92c-81.79,5.82-164.62,14.96-243.7,37.41-58.24,16.04-114.37,39.79-170.36,62.18v-2.15c58.91-23.7,118.08-48.55,179.67-64.6,50.29-13.59,102.93-21.81,154.67-27.48,60.86-6.56,123.47-10.28,184.67-11.69,38.84-.76,80.02-.99,118.79,1.37,60.86,4.05,123.47,7.6,183.75-4.09,77.73-14.37,153.34-41.9,223.64-77.83,36.7-19.06,72.27-41.17,106.84-63.83,48.54-31.84,96.68-65.21,148.06-92.42.04.36.19,1.5.15,1.85-79.49,42.51-150.78,98.94-229.62,142.57-41.93,23.5-86.65,43.32-131.94,59.39-63.1,22.18-129.78,38.45-196.92,39.79-44.58,1-90.57-3.72-135.08-5.27-63.72-1.5-129.02.5-192.6,4.8Z"/>
			<path d="m1198.16,201.05c-47.76,31.84-95.97,63.92-147.07,90.2-45.26,23.19-93.35,42.57-141.93,57.59-57.56,17.8-118.31,29.42-178.73,28.87-34.49-.09-70.9-3.03-105.33-4.63-27.25-1.24-57.88-1.04-85.17-.62-61.79,1.16-125.01,4.99-186.45,11.59-52.77,5.82-106.52,14-157.86,27.73-67.16,17.31-131.17,45.44-195.25,71.47v-2.15c60.22-24.48,120.35-50.96,183.23-68.05,54.94-15.5,112.49-24.44,169.17-30.61,61.83-6.59,125.42-10.38,187.59-11.54,32.79-.56,68.26-.56,100.98,1.38,57.23,3.52,116.18,7.24,173.03-2.42,81.75-13.52,161.18-42.08,234.94-79.52,35.09-18.14,69.2-39.12,102.27-60.72,49.09-32.05,97.42-66.15,149.01-94.13v1.96c-35.16,19.18-69.09,41.45-102.44,63.58h0Z"/>
			<path d="m1196.14,206.45c-46.68,31.27-94.03,62.46-144.16,87.98-73.85,37.02-153.21,65.39-234.84,78.98-47.45,7.98-97.17,7.38-145.05,4.41-83.83-5.85-169.09-3.1-252.8,3.5-74.1,6.22-149.24,15.41-221.05,35.3-68.24,18.35-132.72,48.07-197.87,74.83v-2.16c61.24-25.17,122.02-53.2,185.89-71.29,49.8-14.65,102.09-23.81,153.55-30.26,60.64-7.48,123.09-11.92,184.16-13.83,39.02-1.09,80.39-1.53,119.35.68,53.58,3.09,108.86,6.83,162.22-.9,81.49-11.73,160.71-39.31,234.62-75.14,35-17.22,68.96-37.49,101.76-58.57,52.68-33.86,103.83-70.92,158.68-101.29,0,.49,0,1.5,0,1.99-35.82,19.94-70.36,43.04-104.45,65.76h0Z"/>
			<path d="m1207.5,202.12c-48.54,32.62-97.53,65.49-149.59,92.31-75.05,38.08-155.85,67.16-238.98,81.11-47.69,8.07-97.68,7.49-145.82,4.56-83.9-5.8-169.24-2.89-252.99,4.14-73.86,6.57-148.75,16.27-220.14,36.88-33.12,9.56-66.54,21.61-98.41,34.76-33.7,13.86-67.44,29.44-101.2,43.18v-2.15c58.66-24.33,116.47-52.22,177.26-71.06,94.69-30.11,194.96-40.45,293.71-46.93,51.82-2.92,105.62-4.62,157.5-2.73,55.05,2.51,111.67,7.72,166.64,1.16,67.32-8,133.35-28.2,195.92-53.85,51.24-20.96,100.3-47.89,146.82-77.82,54.22-34.56,106.49-72.92,162.57-104.51-.06.44-.24,1.69-.19,2.12-31.8,17.98-62.73,38.55-93.1,58.83h0Z"/>
			<path d="m1202.91,207.67c-56.78,38.46-114.7,76.47-177.3,104.9-72.86,33.04-150.47,58.75-230.11,68.47-45.19,5.36-92.39,3.16-137.68.47-78.87-4.83-159.21-1.36-237.87,5.46-73.39,6.86-147.79,16.96-218.55,38.17-35.16,10.54-70.35,23.93-104.04,38.48-32.19,13.82-64.57,29.14-96.97,42.48v-2.15c37.88-15.7,75.4-33.81,113.31-49.44,46.46-19.29,95.12-35.38,144.36-45.88,111.11-22.96,225.75-30.71,339.06-30.93,61.99.51,125.19,8.86,187.14,3.08,63.8-6.05,126.66-23.85,186.39-46.63,56.82-21.61,111.36-49.94,162.52-82.68,56.1-35.41,109.77-75.32,167.43-108.23-.02.38.05,1.57.08,1.96-33.39,19.16-65.82,41.02-97.76,62.48h0Z"/>
			<path d="m1189.75,218.28c-40.21,27.18-81.35,53.91-124.3,76.57-77.16,40.01-160.5,70.43-246.34,85.01-63.54,11.18-129.22,5.51-193.2,2.33-79.74-2.55-160.79,2.04-240.05,10.71-65.5,7.56-131.83,18.61-194.57,39.31-65.84,20.95-127.53,53.36-190.92,80.36v-2.15c38.25-16.11,75.97-34.94,114.15-51.23,42.05-18.04,86.09-33.56,130.61-44.28,108.43-25.08,220.91-33.48,331.98-34.98,68.55-1.18,138.17,9.4,206.65,3.03,67.81-6.52,134.42-26.1,197.58-51.1,53.48-21.14,104.85-48.41,153.22-79.45,55.65-35.28,108.91-74.98,166.04-107.9v.05l-.2.07.2-.07v2c-37.95,21.98-74.48,47.25-110.85,71.72h0Z"/>
			<path d="m1190.23,219c-40.36,27.41-81.67,54.37-124.81,77.22-77.58,40.38-161.41,71.11-247.77,85.83-63.84,11.27-129.82,5.52-194.1,2.3-79.57-2.59-160.47,2.05-239.54,11.01-65.13,7.78-131.08,19.19-193.28,40.48C124.85,457.58,63.48,491.18.04,518.7c.04-.25.39-2.1.34-2.31,35.46-15.21,70.42-33.06,105.58-48.92,33.51-15.19,68.59-29.04,103.79-39.82,51.25-15.69,105.28-25.16,158.37-32,68.03-8.52,137.91-13.03,206.47-13.57,63.33-1.14,127.71,7.95,191.03,4.33,69.75-4.21,138.45-23.4,203.5-48.21,31.03-12,62.48-26.04,91.93-41.52,25.06-13.19,49.92-28.06,73.81-43.27,55.55-35.38,108.71-75.17,165.75-108.21v2.06c-37.78,22-74.17,47.26-110.37,71.74Z"/>
			<path d="m1189.71,219.72c-40.87,27.88-82.69,55.29-126.43,78.47-77.67,40.44-161.57,71.29-248.04,86.07-64.12,11.36-130.4,5.5-194.95,2.2-79.38-2.68-160.1,1.96-238.95,11.17-64.73,7.96-130.27,19.69-191.88,41.55-65.27,22.32-125.79,56.7-188.64,84.65l-.43-1.83v-.15c35.4-15.53,70.2-33.88,105.22-50.23,33.11-15.53,67.81-29.73,102.67-40.8,50.79-16.13,104.48-25.85,157.24-32.86,67.75-8.74,137.38-13.31,205.69-13.81,63.61-1.1,128.27,8.14,191.88,4.5,69.86-4.22,138.65-23.49,203.78-48.38,31.39-12.17,63.18-26.38,92.95-42.1,25.25-13.34,50.29-28.37,74.35-43.77,55.77-35.69,109.13-75.82,166.44-109.09v2.05c-37.98,22.17-74.53,47.65-110.89,72.35h0Z"/>
			<path d="m1188.23,220.41c-41.05,28.13-83.05,55.8-127.02,79.19-78.03,40.78-162.34,71.94-249.27,86.84-64.38,11.44-130.94,5.45-195.75,2.04-79.15-2.8-159.65,1.78-238.26,11.18-64.3,8.1-129.38,20.12-190.36,42.54-30.43,11.06-60.9,24.65-89.92,38.97-32.22,15.8-64.48,33.18-97.27,47.78.03-.05-.23-1.95-.24-2.06,32.39-14.54,64.29-31.71,96.14-47.35,32.17-15.89,65.84-30.72,99.78-42.45,53.41-18.62,110.18-29.44,166.12-37.06,67.45-8.93,136.8-13.5,204.83-13.93,63.88-1.03,128.8,8.4,192.67,4.75,69.95-4.22,138.82-23.57,204.02-48.53,31.75-12.33,63.87-26.74,93.96-42.68,25.44-13.49,50.65-28.69,74.87-44.27,56.3-36.2,110.13-76.91,168.07-110.53,0,.45,0,1.63,0,2.06-38.53,22.48-75.54,48.39-112.36,73.52h0Z"/>
			<path d="m1185.89,221.08c37.56-25.75,75.31-52.3,114.71-75.2,0-.49,0-1.26,0-1.76l-1.33.47,1.33-.76v.29c-19.38,10.32-38.51,23.34-56.95,35.31-35.37,23.47-70.38,48.55-105.88,71.84-26.46,17.34-53.94,34.21-81.82,49.13-30.82,16.46-63.67,31.28-96.24,43.96-65.25,25.04-134.19,44.47-204.22,48.67-64.13,3.64-129.29-6.01-193.42-5.08-67.72.33-136.78,4.86-203.9,13.95-55.52,7.74-111.88,18.8-164.71,37.87-33.54,12.01-66.8,27.18-98.51,43.4-31.42,15.98-62.89,33.47-94.91,48.24.01.1.39,1.96.34,2.02,32.41-14.83,64.17-32.52,95.94-48.64,28.63-14.61,58.67-28.51,88.78-39.83,60.31-22.96,124.91-35.25,188.74-43.45,78.33-9.56,158.6-14.05,237.49-11.08,65.06,3.56,131.88,9.7,196.51-1.81,87.39-15.01,172.1-46.48,250.47-87.62,44.17-23.61,86.37-51.53,127.59-79.92h0Z"/>
			<path d="m1197.74,211.35c-45.48,31.57-91.62,63.14-140.36,89.52-68.56,36.71-142.32,65.25-218.13,82.8-28.89,6.55-60.05,11.36-89.66,13.04-42.1,2.38-86.06-.99-128.06-3.59-78.45-4.48-158.41-.66-236.45,8.07-68.73,8.15-138.37,20.82-203,46.24-29.72,11.57-59.37,25.78-87.56,40.68-31.09,16.34-62.2,34.21-93.96,49.24l-.18-1.89v-.23c31.34-14.92,62.05-32.57,92.75-48.73,31.24-16.54,64-32.04,97.17-44.33,52.23-19.51,108.12-30.79,163.21-38.62,66.77-9.21,135.5-13.66,202.89-13.86,64.36-.8,129.74,9.1,194.11,5.49,74.07-4.44,146.77-25.8,215.41-53.15,30.07-12.18,60.54-26.25,89.05-41.72,29.76-16.15,59.02-34.45,87.18-53.23,52.57-35.04,103.58-73.28,158.45-104.75v2.04c-35.29,20.37-69.34,43.87-102.86,67h0Z"/>
			<path d="m1193.89,211.87c34.73-24.08,70-48.5,106.7-69.5v-2l-.22.08.22-.12v.05c-53.76,30.45-103.68,67.76-154.79,102.33-30.71,20.81-62.52,41.05-95.09,58.82-28.9,15.76-59.76,30.07-90.28,42.47-68.66,27.44-141.41,48.89-215.55,53.27-64.6,3.57-130.18-6.6-194.77-5.97-67.03.04-135.43,4.38-201.82,13.69-54.62,7.9-110.04,19.38-161.64,39.32-32.74,12.55-65.05,28.39-95.77,45.25-29.94,16.32-59.9,34.14-90.51,49.2v2.22c31.12-15.2,61.51-33.26,91.91-49.81,27.75-15.19,56.93-29.69,86.29-41.52,63.84-25.98,132.92-38.86,201.1-47.04,83.04-9.44,168.04-12.75,251.45-6.67,46.72,3.29,95.48,5.97,142.13.35,80.28-9.92,158.36-36.41,231.68-69.97,67.11-30.64,128.7-72.24,188.95-114.44h0Z"/>
			<path d="m1189.38,212.32c-50.67,35.51-102.05,70.97-157.1,99.45-75.7,38.64-157.03,68.79-240.99,83.14-44.09,7.57-90.69,7.81-135.24,4.87-93.66-8.02-188.91-7.22-282.28,4-67.6,8.16-136.12,21.24-199.12,47.78-28.96,12.07-57.71,26.87-84.98,42.34-29.52,16.65-59.05,34.79-89.31,50.11v-2.23c35.19-17.98,69.13-39.44,103.82-58.34,34.61-18.96,71.28-35.97,108.8-48.35,46.51-15.13,95.87-24.52,144.29-30.94,61.18-7.91,124.33-11.57,186.02-11.4,70.5-.4,141.99,11.87,212.46,5.31,91.09-9.16,179.29-40.42,261.23-80.31,45.95-22.72,89.6-50.53,131.79-79.54,49.87-34.25,99-70.58,151.81-100.27v2.01c-38.37,21.72-75.08,47.19-111.22,72.38h0Z"/>
			<path d="m1161.62,228.6c-36.51,25.53-74.02,50.66-112.9,72.46-31.76,17.89-65.63,33.83-99.39,47.62-56.65,22.87-116.24,41.35-176.82,50.04-40.25,5.86-83,5.53-123.5,2.79-93.55-8.34-188.26-8.05-281.58,3.22-67,8.14-134.94,21.39-197.07,48.49-28.55,12.31-56.83,27.41-83.62,43.16-28.54,16.69-57.09,34.83-86.37,50.24v-2.26c34.11-18.12,66.98-39.61,100.59-58.6,34-19.31,70.1-36.67,107.16-49.29,45.97-15.42,94.89-24.94,142.89-31.37,60.82-7.93,123.62-11.43,184.95-11.06,70.71-.14,142.39,12.49,213.1,5.96,91.16-9.09,179.38-40.51,261.32-80.5,46.47-23.02,90.57-51.25,133.19-80.71,51.49-35.57,102.22-73.25,157.02-103.68v.27l-1.32.47,1.32-.47v1.75c-48.33,27.05-93.63,59.8-138.98,91.47h0Z"/>
			<path d="m1163.5,223.72c-37.22,26.26-75.33,52.32-114.85,75-27.1,15.67-56,29.96-84.68,42.55-91.16,39.47-190.07,68.45-290.29,63.59-36.7-1.36-75.38-5.51-112.06-7.25-55.88-2.18-113.49-.53-169.18,4.52-77.1,7.41-155.65,20.55-226.72,52.51-58.22,25.42-110.08,63.32-165.36,94.15v-2.27c35.56-19.72,69.63-43.04,104.91-63.23,37.78-21.76,78.26-40.6,120.14-52.94,97.86-28.2,201.32-35.55,302.78-35.16,74.88.21,150.77,14.56,225.57,5.48,92.54-11.53,182.08-44.75,264.7-87.22,44.14-23.16,86.17-50.86,126.98-79.41,50.6-35.42,100.87-72.34,155.14-102.05v2c-47.76,26.34-92.57,58.37-137.09,89.74h0Z"/>
			<path d="m1164.97,218.67c-53.49,38.08-108.13,75.62-167.07,104.84-46,22.92-94.66,42.45-143.86,57.31-55.28,16.76-113.78,27.34-171.7,26.09-36.93-.56-75.83-4.71-112.65-7.24-27.14-1.86-57.62-2.3-84.82-2.03-62.73.84-126.79,5.74-188.55,16.95-46.2,8.51-92.87,21.19-135.49,41.21-56.74,25.67-107.01,63.61-160.61,94.82.02-.24.19-2.22.17-2.41,34.22-19.8,67.01-43,100.99-63.19,40.53-24.3,84.34-44.77,129.98-57.37,99.27-27.15,203.93-33.32,306.45-31.15,69.06,2.3,139.34,14.3,208.42,5.93,48.13-5.57,96.13-18.25,141.83-34.13,43.35-15.18,86.4-33.86,126.96-55.42,45.9-24.47,89.47-53.8,131.91-83.8,49.86-35.3,99.83-71.5,153.69-100.55v1.95c-47.31,25.73-91.78,57.04-135.63,88.18h0Z"/>
			<path d="m1150.88,224.26c48.36-34.55,97.23-69.43,149.72-97.53v-1.54l-2.07.72,2.07-1.11v.39c-56.67,28.98-108.31,67.56-160.23,104.17-42.72,30.36-86.57,60.04-132.81,84.78-40.71,21.73-83.93,40.57-127.48,55.85-45.68,15.91-93.67,28.6-141.8,34.11-75.23,8.98-151.4-6.3-226.64-7.21-99.88-1.23-202.06,5.41-298.04,34.72-41.73,13.03-81.58,33.09-118.55,56.27-31.8,19.8-62.61,42.22-94.68,61.58v2.34c50.74-30.72,98.17-67.74,151.87-93.43,42.93-21.3,90.21-34.7,137.2-43.48,55.67-10.31,113.61-15.09,170.18-16.38,33-.62,68.7-.21,101.63,2.18,36.93,2.73,75.94,7.08,112.99,7.77,94.83,2.15,187.97-26.51,274.19-63.88,29.51-13.04,59.18-27.83,87.02-44.11,39.73-23.07,78.02-49.54,115.41-76.19h0Z"/>
			<path d="m1136.44,229.83c-36.85,26.31-74.72,52.25-114.01,74.8-33.22,19.13-68.62,36.1-104.06,50.75-79.82,32.52-165.58,56.86-252.46,54.46-37.17-.82-76.29-5.39-113.32-8.33-32.81-2.56-68.43-3.16-101.33-2.67-101.1,2.6-209.66,13.36-301.33,58.75-53.27,25.94-99.7,63.52-149.56,95.08,0-.21-.05-2.07-.05-2.32,33.87-21.42,65.99-45.97,99.97-67.21,33.4-21.06,69.44-39.1,107.09-51.23,95.01-29.87,196.54-36.11,295.59-34.43,75.4,1.3,151.68,17.11,227.11,8.19,48.12-5.44,96.1-18.14,141.75-34.08,45.21-15.92,89.97-35.6,132.08-58.48,47.82-26.05,93.03-57.29,137.23-88.99,51.27-36.93,103.29-73.88,159.37-103.24.01.32.08,1.59.06,1.89-57.85,30.43-111.16,69.07-164.15,107.09h0Z"/>
			<path d="m125.27,468.44c-43.75,24.84-82.98,57.02-124.9,84.65v-2.4c32.17-21.28,62.74-45.43,95.09-66.45,23.54-15.38,48.42-29.29,74.25-40.42,45.92-19.56,96.05-30.54,145.35-37.41,70.22-9.31,142.55-11.19,213.24-7.03,67.87,4.99,137.33,16.22,205.28,6.22,47.99-6.56,95.75-20.05,141.18-36.65,42.96-15.83,85.54-35.06,125.59-57.25,46.52-25.82,90.61-56.5,133.73-87.58,53.39-38.74,107.74-77.22,166.52-107.48v1.9c-54.9,28.46-106,64.14-155.97,100.37-46.46,33.53-93.75,66.86-144,94.51-39.74,21.85-81.98,40.86-124.54,56.54-49.79,18.18-102.14,32.68-154.92,38.6-81.38,9.36-163.34-9.61-244.71-9.58-66.98-.87-135.41,3.2-201.28,15.75-52.17,9.9-103.95,26.76-149.9,53.71h0Z"/>
			<path d="m1122.1,229.81c-36.39,26.25-73.77,52.17-112.53,74.8-31.07,18.24-64.19,34.58-97.29,48.84-77.89,32.9-161.46,58.62-246.68,58.91-65.84-.1-132.17-13.03-198.02-13.32-104.96-1.32-224.67,7.19-319.72,54.61-53.38,26.34-98.87,65.71-147.48,99.48v-2.43c31.54-21.86,61.62-46.51,93.57-67.82,22.09-14.77,45.51-28.27,69.79-39.06,45.22-19.92,94.83-31.02,143.61-37.87,69.79-9.3,141.7-10.81,211.93-6.26,68.01,5.41,137.6,17.09,205.75,7.16,51.99-7.05,103.47-22.18,152.41-40.84,40.07-15.42,79.89-33.83,117.32-54.84,48.67-27.34,94.61-59.96,139.74-92.71,30.36-21.93,61.38-44.32,93-64.41,23.49-14.83,48.43-29,73.09-41.79v1.88c-26.17,13.66-52.49,28.77-77.31,44.77-34.36,22.3-67.97,46.94-101.19,70.89h0Z"/>
			<path d="m1114.74,229.61c-59.72,43.67-122.05,84.89-189.65,115.41-78.94,35.69-163.71,64.24-250.88,68-66.15,2.48-132.69-11.43-198.64-13.6-104.74-3.41-222.8,3.07-319.17,47.09-27.69,12.96-54.12,29.76-78.81,47.74-25.95,18.88-51.18,39.78-77.21,58.54v-2.47c42.91-31.39,83.45-67.19,130.24-92.93,84.17-46.81,183.45-57.64,278.24-60.27,44.18-.79,90.36.93,134.29,5.8,60.98,6.98,124.14,13.77,185.13,3.35,51.78-8.22,102.96-24.1,151.61-43.43,38.07-15.28,75.96-33.26,111.55-53.66,49.95-28.59,96.95-62.67,143.41-96.53,27.9-20.22,56.6-40.81,85.66-59.33,25.72-16.29,52.99-31.66,80.09-45.53v1.84c-28.64,14.76-57.32,31.08-84.37,48.59-34.48,22.45-68.18,47.27-101.49,71.4h0Z"/>
			<path d="m146.68,447.94c-53.99,26.54-98.9,67.84-146.31,104.1v-2.51c43.72-33.61,85.31-71.57,134.26-97.68,88.73-47.6,199.39-56.17,298.61-55.37,55.12.16,111.23,8.15,165.97,13.57,43.54,4.06,89.25,3.26,132.29-4.82,47.57-8.6,94.78-23.51,139.64-41.39,38.46-15.47,76.7-33.69,112.61-54.4,50.07-28.82,97.17-63.17,143.73-97.25,27.99-20.39,56.79-41.14,85.98-59.79,27.97-17.75,57.57-34.34,87.14-49.25-.01.33.04,1.46.05,1.81-28.64,14.54-57.34,30.64-84.46,47.86-34.51,22.06-68.08,46.74-101.17,70.86-43.77,32.02-88.53,63.66-135.84,90.29-37.58,21.12-77.55,39.7-117.77,55.24-45.63,17.48-93.65,31.89-141.99,39.47-67.01,11.51-135.94,1.64-202.81-5.9-116.15-10.67-264.14-6.98-369.94,45.16h0Z"/>
			<path d="m1115.35,217.5c-48.77,35.91-98.38,71.64-151.5,100.9-42.71,23.5-88.1,43.82-134.05,60.13-49.83,17.54-102.33,31.08-155.13,35.07-66.75,5.09-133.98-9.16-200.29-14.04-80.17-5.08-162.47-2.99-241.05,14.88C126.7,438.93,81.52,484.73.72,550.67c-.07-.38-.42-1.92-.35-2.29,43.67-35.24,85.58-74.63,135.65-100.88,94.61-49.47,216.93-55.21,321.97-50.51,54.91,2.44,110.61,13.21,165.51,15.68,40.84,1.91,83.28-2.34,123.09-11.4,81.19-18.66,159.44-51.34,231.52-92.89,52.22-30.38,101.09-66.77,149.74-102.45,25.51-18.6,51.96-37.55,78.56-54.59,30.19-19.22,62.13-36.99,94.17-52.92.03.34-.08,1.5-.11,1.86-31.05,15.53-62.03,32.81-91.32,51.45-31.95,20.48-63.22,43.33-93.82,65.76Z"/>
			<path d="m1093.62,228.08c-47.98,35.35-97.28,69.81-150.05,97.68-42.49,22.47-87.53,42.02-133.07,57.42-46.16,15.51-94.82,27.36-143.49,30.89-66.98,4.94-134.35-9.84-200.83-15.11-66.73-4.76-135.26-3.86-201.4,6.8-42.44,7.16-85.6,18.71-124.06,38.37-22.52,11.56-44.89,26.7-64.85,42.23-25.65,20.01-50.46,42.99-75.5,63.73-.08-.65.17-2.19.3-2.84,42.74-36.1,84.16-76.03,134.06-102.33,93.16-48.56,211.89-53.77,315.16-48.62,55.03,2.76,110.8,13.94,165.82,16.66,45,2.36,91.42-3.02,135.08-13.84,78.06-19.47,153.36-51.49,222.76-92.05,54.39-31.97,105.03-70.45,155.85-107.7,25.41-18.5,51.82-37.3,78.47-53.99,29.78-18.59,61.23-35.87,92.74-51.35v1.81c-33.18,16.4-66.18,34.71-97.39,54.63-37.48,24.11-73.69,51.23-109.59,77.61h0Z"/>
			<path d="m1109.2,210.92c-50.22,37.29-100.97,74.84-155.51,105.65-44.65,25.18-92.18,46.77-140.48,63.95-49.75,17.54-102.22,31-154.97,34.69-55.81,3.84-112.74-5.85-167.91-12.88-47.93-5.8-98.02-7.74-146.26-5.89-73.49,3.38-149.7,14.72-214.9,50.64-48.02,26.6-87.88,66.18-128.8,102.14-.02-.6.04-2.09.07-2.7,41.39-36.7,81.97-76.84,131.16-103.18,91.77-48.18,207.43-52.86,309.17-47.19,55.11,3.11,110.9,14.75,166.02,17.75,49.13,2.88,99.52-3.77,146.96-16.44,74.17-19.9,145.8-50.86,211.94-89.79,54.52-32.22,105.24-70.98,156.16-108.47,25.52-18.66,52.03-37.6,78.81-54.42,32.06-20.06,65.9-38.52,99.94-55v1.76c-35.74,17.4-71.17,36.92-104.66,58.35-29.49,19-58.52,40.18-86.74,61.01Z"/>
			<path d="m1078.15,228.15c-46.1,34.29-93.43,67.86-143.9,95.45-41.5,22.68-85.56,42.47-130.13,58.31-45.9,16.2-94.3,28.88-142.85,33.5-54.31,5.34-110.14-2.94-163.8-10.73-31.97-4.63-66.78-7.79-99.07-8.89-91.12-2.43-187.97,4.46-269.74,48.12-48.31,26.54-87.98,66.85-128.08,103.96-.01-.17-.25-2.4-.22-2.5,39.9-37.15,79.52-77.31,127.84-103.61,94.51-50.05,215.44-52.73,320.08-44.51,43.75,3.91,88.89,12.46,132.64,16.36,58.74,5.84,119-1.64,175.55-18,71.04-20.37,139.72-50.66,203.16-88.51,56.69-33.87,109.17-74.78,162.32-113.8,23.02-16.79,47.14-33.89,71.27-49.06,34.4-21.58,70.73-41.23,107.37-58.71,0,.41,0,1.34,0,1.76-38.38,18.41-76.32,39.14-112.17,62.13-37.76,24.42-74.19,51.94-110.28,78.73h0Z"/>
			<path d="m1078.14,222.33c-45.42,34.04-91.81,67.74-141.17,95.89-41.48,23.61-85.62,44.14-130.36,60.81-45.66,16.87-93.8,30.39-142.22,36.2-86.55,11.45-172.56-15-258.64-19.16-94.13-4.71-196.6.69-281.01,46.43-47.27,26.49-85.82,66.71-124.37,104.08v-2.75c37.95-37.06,76.13-76.69,122.82-102.89,88.98-48.31,200.19-52.09,299.25-45.36,49.57,3.46,100.03,13.96,149.45,18.71,67.34,7.19,134.88-3.66,198.97-24.45,64.47-20.8,126.98-49.42,184.82-84.67,58.11-35.29,111.73-77.92,166.55-117.95,55.57-41.22,115.66-76.76,178.36-105.98-.03.28.1,1.4.12,1.69-41.04,19.4-81.52,41.33-119.72,65.9-35.18,22.8-69.29,48.42-102.86,73.49h0Z"/>
			<path d="m1078.25,216.34c-47.28,35.64-95.31,71.25-146.63,100.92-39.01,22.53-80.54,42.28-122.53,58.64-49.16,18.97-101.04,34.15-153.49,40.32-86.54,11.23-172.32-15.94-258.28-20.71-92.57-5.23-193.16-.18-276.05,45.23-46.35,26.37-83.91,66.46-120.91,104.15v-2.83c36.61-37.52,73.97-77.22,120.05-103.27,87.42-47.59,195.96-50.93,293.23-43.68,49.54,3.81,99.93,14.71,149.32,19.76,67.43,7.6,134.8-3.05,199.01-23.84,64.87-20.9,127.7-49.81,185.81-85.4,58.23-35.56,111.93-78.48,166.87-118.76,57.76-43.06,120.49-79.8,185.93-109.88-.03.26.1,1.39.13,1.67-40.89,19.05-81.25,40.59-119.42,64.64-35.39,22.41-69.55,47.93-103.05,73.05h0Z"/>
			<path d="m1078.48,210.2c-42.9,32.4-86.22,65.3-131.91,93.73-35.87,22.51-74.12,42.3-112.92,59.31-66.67,28.77-137.81,51.57-210.7,55.87-56.46,3.1-113.72-8.4-169.21-17.1-106.83-15.29-237.82-16.98-334.59,36.1-46.06,26.16-82.91,66.51-118.78,104.73v-2.88c35.12-37.68,71.46-77.22,116.62-103.07,85.93-47.23,192.27-50.16,287.96-42.4,49.52,4.15,99.82,15.47,149.19,20.82,67.47,8.03,134.76-2.43,199.05-23.21,65.26-21,128.42-50.19,186.79-86.12,58.36-35.81,112.13-79.03,167.19-119.55,59.93-44.89,125.28-82.79,193.43-113.71v1.73c-43.38,19.94-86.12,42.57-126.5,68.07-32.78,20.79-64.6,44.39-95.62,67.7Z"/>
			<path d="m1063.17,215.74c-40.98,31.15-82.61,62.5-126.35,89.71-35.56,22.29-73.48,41.91-111.92,58.78-66.59,28.77-137.7,51.53-210.55,55.55-50.91,2.54-103.04-6.77-152.97-15.49-109.3-18.55-245.49-23.29-345.1,31.5-45.39,25.9-81.42,66.21-115.91,104.72v-2.96c33.49-37.61,68.68-76.73,112.64-102.34,84.38-47.15,189.13-49.76,283.31-41.48,49.49,4.49,99.72,16.23,149.06,21.88,67.55,8.46,134.65-1.79,199.08-22.55,66.41-21.33,130.58-51.22,189.78-88.08,60.57-37.56,116.11-83.06,173.59-125.02,59.69-44.26,125.03-81.09,192.76-111.54v1.71c-45.89,20.82-91.04,44.55-133.63,71.5-35.69,22.7-70.08,48.6-103.79,74.1h0Z"/>
			<path d="m1063.56,209.37c-42.42,32.32-85.25,65.19-130.37,93.71-33.75,21.52-69.68,40.63-106.12,57.22-69.72,31.22-144.46,56.05-221.24,60.04-51.05,2.34-103.26-7.38-153.25-16.5-107.69-19.15-240.88-24.67-339.22,29.55-44.69,25.6-79.83,65.79-112.98,104.44v-3.02c32.04-37.56,66.23-76.4,109.23-101.7,82.88-46.75,185.59-49.02,278.17-40.26,49.47,4.84,99.62,16.99,148.94,22.96,71.78,9.5,142.58-2.53,210.65-25.61,62.6-21.2,123.2-49.93,179.2-85.01,60.7-37.82,116.31-83.63,173.92-125.84,61.82-46.03,129.74-83.95,200.11-115.2v.16l-.82.2.82-.2v1.54c-45.5,20.37-90.31,43.55-132.69,69.83-36.02,22.33-70.6,48.12-104.35,73.71h0Z"/>
			<path d="m1064.07,202.87c-43.93,33.47-87.94,67.89-134.46,97.75-31.99,20.73-65.95,39.34-100.45,55.58-72.77,33.73-151.09,60.68-231.77,64.61-51.2,2.14-103.47-8.01-153.52-17.53-106.09-19.74-236.38-26.01-333.47,27.65-43.94,25.24-78.23,65.23-110.01,103.92v-3.08c30.6-37.43,63.8-75.88,105.81-100.85,81.4-46.36,182.14-48.32,273.15-39.1,49.45,5.19,99.52,17.76,148.81,24.05,38.25,4.93,78.97,4.89,117.03-1.42,83.08-13.72,162.62-46.37,236.13-86.77,43.62-24.28,84.97-53.22,124.85-83.19,42.35-31.88,84.31-65.33,128.33-94.94,52.29-34.87,108.56-64.29,166.02-89.66.02.26.13,1.4.11,1.63-47.93,21.2-95.09,45.41-139.63,73.08-33.37,20.71-65.62,44.55-96.9,68.26Z"/>
			<path d="m1064.7,196.24c-42.66,32.41-85.1,66.16-129.71,95.9-33.06,22.24-68,42.38-103.86,59.77-72.19,34.65-149.87,62.52-230.22,68.62-55.34,4.12-111.7-7.2-165.7-17.93-104.46-20.3-232.05-27.3-327.85,25.82-43.15,24.83-76.54,64.52-106.99,103.12v-3.17c29.19-37.14,61.37-75.12,102.32-99.68,79.95-45.97,178.76-47.64,268.23-37.98,55.16,6.17,110.46,21.57,165.71,27.11,36.74,3.72,75.63,2,111.89-4.79,81.42-15.3,159.31-48.03,231.25-88.58,41.45-23.68,80.9-51.53,118.97-80.28,42.44-32.1,84.49-65.76,128.63-95.54,54.47-36.42,113.22-66.87,173.22-93.05v1.67c-50.35,22-99.85,47.22-146.53,76.27-30.69,19.07-60.57,40.94-89.37,62.73h0Z"/>
			<path d="m1065.48,189.48c-39.94,30.18-79.46,61.97-120.53,90.64-35.58,24.98-73.03,47.93-111.94,67.36-75.09,37.23-156.25,67.26-240.42,73.39-55.49,3.91-111.9-7.88-165.94-19.04-102.83-20.89-227.78-28.32-322.35,24.03-42.32,24.38-74.82,63.72-103.98,102.11,0-.31.08-3.11.06-3.33,28.64-37.82,60.78-76.34,102.39-100.35,66-36.81,144.77-42.92,218.91-38.6,57.95,2.93,115.69,17.43,172.63,27.47,108.7,20.95,217.84-9.68,315.87-56.21,49.03-23.14,96.52-51.47,140.48-83.13,51.91-36.94,101.22-78.22,153.33-114.89,61.08-43.14,128.05-78.03,196.6-107.63v1.66c-49.73,21.47-98.67,46.03-144.96,74.21-31.03,18.79-61.22,40.47-90.16,62.31h0Z"/>
			<path d="m1043.16,194.05c-63.08,48.72-125.59,99.45-195.61,138.06-97.02,52.81-207.23,96.42-319.55,88.65-56.65-4.32-112.81-21.53-168.74-30.46-87.71-13.03-187.18-13.42-265.65,32.96-37.98,23.29-67.29,59.81-92.79,95.71-.02-.18-.53-2.67-.45-2.75,25.16-35.51,54.2-71.49,91.71-94.53,71.85-42.51,159.95-45.35,240.96-36.57,112.81,13.85,182.75,51.28,302.4,27.13,88.43-18.02,173.3-56.76,249.56-104.4,48.53-30.65,94.07-66.53,139.31-101.75,34.42-26.65,69.76-53.46,106.7-76.56,53.8-33.65,111.15-62.16,169.6-86.76v1.64c-54.43,22.98-107.92,49.43-158.36,80.24-34.27,20.82-67.27,45.01-99.07,69.39h0Z"/>
			<path d="m1012.21,211.76c-58.55,46.03-118.17,91.91-184.11,126.97-93.93,49.66-200.39,90.16-308.31,81.88-56.77-4.68-112.93-22.42-168.94-31.76-86.2-13.4-183.81-14.03-260.86,31.99-36.95,22.86-65.34,58.72-89.62,94.14v-3.48c23.85-34.73,51.86-69.79,88.08-92.23,70.43-42.15,157.16-44.83,236.7-35.7,112.61,14.61,182.35,52.82,302.05,29,88.81-17.87,173.96-56.87,250.4-104.81,48.62-30.85,94.23-66.95,139.55-102.38,34.53-26.85,70-53.84,107.1-77.07,55.87-35,115.52-64.43,176.33-89.76v.24l-1.3.3,1.3-.3c0,.29,0,1.12,0,1.39-59.88,25.01-118.61,54.06-173.64,88.53-39.86,24.97-77.69,54.15-114.75,83.05Z"/>
			<path d="m997.21,217.25c-62.07,49.23-126.36,97.16-197.56,132.52-93.41,46.84-199.88,83.14-305.58,68.69-50.63-6.71-101.31-22.44-151.57-31.13-84.71-13.75-180.5-14.59-256.14,31.09-35.63,22.18-62.92,57.11-85.99,91.58v-3.55c22.69-33.75,49.55-67.86,84.46-89.6,65.23-39.65,145.69-43.84,219.9-36.35,117.02,12.96,189.77,56.92,314.32,32.34,89.18-17.7,174.62-56.95,251.23-105.21,48.72-31.04,94.38-67.37,139.78-102.99,37.34-29.18,75.73-58.33,116.24-83.01,55.37-33.91,114.29-62.56,174.29-87.28v1.63c-62.23,25.71-123.24,55.67-180.32,91.48-42.88,26.91-83.28,58.6-123.08,89.8h0Z"/>
			<path d="m1013.96,197.84c-63.46,49.96-126.96,101.25-198.31,139.69-94.82,50.77-202.79,92.34-312.09,82.61-57.01-5.41-113.16-24.24-169.32-34.38-83.25-14.08-177.26-15.11-251.52,30.23-34.27,21.5-60.52,55.31-82.34,88.82v-3.59c21.43-32.77,47.29-65.74,80.82-86.8,63.93-39.34,143.16-43.41,216.06-35.62,116.77,13.71,189.06,58.46,313.71,34.27,90.36-17.7,176.78-57.69,254.13-106.91,50.9-32.73,98.35-71.22,145.92-108.52,34.87-27.22,70.93-54.27,108.74-77.33,57.4-35.19,118.55-64.74,180.86-90.12,0,.38,0,1.22,0,1.6-61.4,25.07-121.64,54.25-178.21,88.94-37.7,22.99-73.65,49.96-108.43,77.11h0Z"/>
			<path d="m1023.07,184.47c-65.95,51.25-130.44,105.69-203.5,146.76-97.92,54.26-210.14,99.28-324.07,88.57-57.12-5.79-113.26-25.17-169.5-35.71-81.81-14.38-174.09-15.6-246.99,29.42-32.83,20.71-57.94,53.35-78.64,85.66.02-.24-.11-3.2-.11-3.53,20.45-31.55,45.07-63.43,77.23-83.7,62.66-39.05,140.67-42.99,212.28-34.92,116.54,14.45,188.34,60.01,313.1,36.21,90.72-17.51,177.42-57.74,254.94-107.27,51-32.93,98.51-71.65,146.16-109.15,37.76-29.66,76.92-58.83,118.26-83.36,56.77-34,117.02-62.72,178.37-87.42v1.6c-63.7,25.73-126.18,55.8-184.78,91.75-32.02,19.55-63.07,42.19-92.75,65.09h0Z"/>
			<path d="m571.97,420.5c-38.9,5.35-80.44,3.36-118.96-4.08-56.58-10.9-112.77-30.63-170.19-37.12-70.96-8.33-148.76-3.95-209.99,36.4-30.14,20.11-53.43,50.91-72.45,81.31v-3.68c18.66-29.65,41.52-59.54,70.93-79.19,61.69-40.71,140.1-44.86,211.59-36.48,108.31,13.55,185.84,59.16,300.73,39.68,88.76-14.63,172.94-51.98,249.55-98.28,46.33-28.51,89.91-62.05,132.42-95.91,42.87-34.04,86.16-68.8,132.53-98.02,63.85-40.19,132.46-73.13,202.48-101.04v.23l-1.31.28,1.31-.28v1.36c-65.85,26.31-130.42,57.16-190.89,94.3-32.18,19.67-63.36,42.46-93.16,65.53-54.86,42.65-108.48,87.87-167.11,125.37-36.79,23.74-76.12,44.52-116.18,62.19-51.23,22.34-105.73,40.17-161.29,47.43h0Z"/>
			<path d="m565.84,424.48c-38.93,5.3-80.51,3.16-119.02-4.46-56.38-11.1-112.34-31.15-169.59-37.82-69.84-8.42-146.58-3.95-206.58,36.27-29.44,19.9-52.04,50.33-70.28,80.39v-3.78c17.27-28.11,38.48-56.68,65.6-75.95,44.79-31.87,101.65-42.29,155.72-42.24,171.71,2.57,233.53,86.87,425.49,28.32,66.13-20.28,129.55-50.59,188.04-87.38,46.51-29.44,90.23-63.84,133.15-98.22,43.08-34.4,86.93-69.11,134.03-97.92,62.71-38.53,129.77-70.35,198.18-97.35v1.59c-99.79,39.38-196.42,89.25-280.9,155.83-57.94,44.69-113.93,92.86-175.6,132.48-37.05,24.02-76.67,45.05-117.07,62.88-51.18,22.35-105.65,40.18-161.18,47.36h0Z"/>
			<path d="m572.82,427c-116.66,19.37-191.2-26.93-300.07-41.43-68.83-8.47-144.55-3.84-203.43,36.25-29.13,19.91-51.21,50.41-68.94,80.47v-3.89c16.81-27.98,37.37-56.56,64.11-75.79,44.05-31.91,100.31-42.46,153.8-42.36,53.02-.06,106.27,11.66,157.14,25.77,100.68,28.38,165.21,33.85,266.87,3.39,66.49-20.4,130.2-50.99,188.93-88.1,46.61-29.64,90.41-64.27,133.41-98.85,43.24-34.67,87.27-69.63,134.62-98.61,63.69-39.12,131.78-71.5,201.34-98.71v1.61c-97.81,38.51-192.92,86.67-276.24,151.27-60.49,46.16-118.21,96.81-182.15,138.3-34.64,22.74-71.63,42.82-109.29,60.13-50.8,23.12-104.85,41.86-160.11,50.56Z"/>
			<path d="m557.35,432.91c-39.04,5.29-80.74,2.95-119.3-4.92-56.11-11.36-111.72-31.82-168.73-38.72-67.91-8.45-142.7-3.63-200.56,36.31-29.23,20.16-50.98,51.15-68.38,81.62v-3.97l.57-1.03,8.49-14.07c9.89-15.14,22.63-32.81,35.5-45.49,44.53-44.17,109.96-58.91,170.95-58.65,52.53-.08,105.26,11.77,155.61,25.87,100.78,28.71,165.36,34.34,267.19,3.77,65.41-20.09,128.11-50.13,186.03-86.42,45.28-28.6,87.96-61.96,129.61-95.55,43.26-34.78,86.98-70.24,133.96-99.94,66.82-42.14,138.73-76.51,212.26-105.21,0,.19.07,1.42.06,1.57-98.65,38.66-194.54,87.27-278.45,152.46-60.64,46.42-118.46,97.39-182.55,139.17-34.94,23.03-72.25,43.37-110.26,60.87-54.42,24.8-112.48,44.65-171.99,52.31Z"/>
			<path d="m350.35,410.62c-56.2-15.62-115.5-25.46-173.87-18.99-36.34,4.14-73.14,14.83-103.72,35.36-31.65,20.76-54.44,53.86-72.39,86.58.08-1.1-.32-4.23.55-5.09,10.98-19.56,25.23-41.17,40.46-57.67,46.23-49.66,117.79-64.82,183.32-62.73,146.68,5.42,215.55,77.71,376.95,39.04,70.86-16.92,138.56-47.25,201.26-84,35.31-20.88,69.19-45.03,101.68-70.05,57.8-44.61,113.03-93.51,174.26-133.52,69.45-45.01,144.73-81.22,221.73-111.29v1.57c-76.05,29.78-150.38,65.61-218.99,110.08-67.14,43.89-126.94,98.35-191.09,146.29-47.63,35.94-98.73,67.9-152.71,93.41-68.32,32.21-142.27,57.56-218.33,60.32-57.67,2.2-114.1-14.05-169.12-29.29h0Z"/>
			<path d="m348.68,414.45c-52.65-14.68-108.01-24.26-162.79-19.72-39.19,3.32-79.1,14.03-111.97,36.2-32.69,21.55-55.6,56.19-73.55,90.3v-4.15l1.2-2.32c10.77-19.84,24.76-41.8,39.85-58.62,45.52-50.4,117.12-66.16,182.67-64.1,27.54.83,56.14,4.66,83.06,10.44,25.33,5.46,51.1,12.88,76.1,19.66,78.27,21.9,137.44,27.73,217.37,8.83,67.88-16.24,132.88-44.95,193.32-79.54,35.7-20.52,69.89-44.41,102.63-69.37,61.12-46.66,118.82-98.67,183.27-140.85,69.14-44.87,144.08-81.02,220.74-111.07v1.57c-75.7,29.75-149.69,65.51-217.99,109.84-67.42,44.13-127.39,98.96-191.74,147.23-47.98,36.34-99.48,68.65-153.91,94.42-68.39,32.32-142.42,57.8-218.59,60.63-57.87,2.26-114.49-14.08-169.69-29.42h0Z"/>
			<path d="m339.76,415.87c-86.39-23.45-190.99-32.25-267.93,21.76-32.07,22.63-54.05,58.06-71.46,92.56v-4.22s2.51-5,2.51-5c9.75-18.67,22.93-39.87,36.38-56.11,44.55-53.66,118.14-71.06,185.27-68.93,50.97,1.08,101.13,13.81,149.91,27.61,82.29,23.31,142.05,31.01,226.48,10.94,57.62-13.78,113.41-36.92,165.74-64.48,43.23-22.64,84.3-49.86,123.21-79.27,64.58-48.64,124.77-103.87,192.51-148.26,68.37-44.45,142.45-80.33,218.21-110.26v.15l-.87.19.87-.19v1.44c-78.07,30.96-154.39,68.2-224.32,114.91-67.11,45.39-127.22,100.72-192.3,148.81-45.76,34.16-94.88,64.41-146.47,88.95-68.5,32.45-142.65,58.09-218.97,61.04-61.07,2.53-120.49-15.81-178.77-31.63h0Z"/>
			<path d="m813.22,349.26c-84.6,50.27-182.32,93.12-281.36,100.74-47.41,3.61-95.25-4.88-140.89-17.19-30.77-8.13-62.03-17.46-93.29-23.59-57.74-11.02-119.54-12.76-175.54,7.25C58.94,439.13,28.56,481.92.37,540.26v-4.28l4.43-9.08,7.86-14.81c8.48-14.79,19.96-32.78,31.09-45.68,42.18-49.23,109.65-67.21,172.45-67.03,137.26.17,215.91,71.83,362.88,43.01,54.8-10.38,108.25-30.18,158.48-54.16,47.71-22.75,93.58-50.44,136.26-81.61,72.37-52.28,137.87-114.45,212.6-163.54,67.13-43.73,139.83-79.19,214.16-108.86v1.59c-79.89,32.06-157.97,70.63-229,119.5-88.07,61.83-165.73,138.52-258.38,193.95h0Z"/>
		</g>
	</g>
	<g transform="translate(1.8)">
		<g id="spark-1" style="offset-path:path('M495.464603,314.742008C507.114008,315.477758,644.549915,326.68494,697.861359,327.818271C773.399648,328.791821,862.463715,317.934818,899.256546,307.804818');offset-rotate:0deg">
			<ellipse id="spark-1-ellipse" rx="5.933902" ry="5.933902" transform="scale(1.436578,1.436578) translate(0,0)" opacity="0" filter="url(#spark-blur-filter)" fill="url(#spark-gradient-1)" stroke-width="0" />
		</g>
		<g id="spark-2" style="offset-path:path('M347.027303,385.671562C358.662777,389.016172,465.919141,419.029896,518.244134,418.894818C539.504331,418.894818,606.662328,422.719297,710.894989,380.794818');offset-rotate:0deg">
			<ellipse id="spark-2-ellipse" rx="5.933902" ry="5.933902" transform="scale(1.436578,1.436578) translate(0,0)" opacity="0" filter="url(#spark-blur-filter)" fill="url(#spark-gradient-1)" stroke-width="0" />
		</g>
		<g id="spark-3" style="offset-path:path('M186.672798,355.427738C243.084329,350.17456,363.085534,349.043694,421.393898,350.16605C453.131793,350.16605,539.59274,351.522403,654.660584,363.257786');offset-rotate:0deg">
			<ellipse id="spark-3-ellipse" rx="5.933902" ry="5.933902" transform="scale(1.436578,1.436578) translate(0,0)" opacity="0" filter="url(#spark-blur-filter)" fill="url(#spark-gradient-2)" stroke-width="0" />
		</g>
		<g id="spark-4" style="offset-path:path('M742.44979,403.17598C810.265508,389.065504,848.473003,380.62615,908.725223,362.804386C975.514448,336.15615,1026.146349,318.549818,1079.917598,286.471548');offset-rotate:0deg">
			<ellipse id="spark-4-ellipse" rx="5.933902" ry="5.933902" transform="scale(1.436578,1.436578) translate(0,0)" opacity="0" filter="url(#spark-blur-filter)" fill="url(#spark-gradient-3)" stroke-width="0" />
		</g>
		<g id="spark-5" style="offset-path:path('M808.281883,331.129818C865.870196,304.332981,924.086812,248.024818,988.501311,212.931444C1053.002356,171.564818,1128.315605,144.476585,1191.222264,120.288016');offset-rotate:0deg">
			<ellipse id="spark-5-ellipse" rx="5.933902" ry="5.933902" transform="scale(1.436578,1.436578) translate(0,0)" opacity="0" filter="url(#spark-blur-filter)" fill="url(#spark-gradient-3)" stroke-width="0" />
		</g>
   </g>
</svg>