<?xml version="1.0" encoding="UTF-8"?>
<svg  width="18" height="19" fill="none" xmlns="http://www.w3.org/2000/svg">
    <path d="m15.678 16.46-4.456-4.608m1.508-3.825a5.487 5.487 0 0 1-.406 2.05 5.382 5.382 0 0 1-1.14 1.736 5.226 5.226 0 0 1-1.7 1.157 5.113 5.113 0 0 1-3.997-.011 5.206 5.206 0 0 1-1.689-1.167 5.362 5.362 0 0 1-1.125-1.742A5.48 5.48 0 0 1 3.831 4.21a5.163 5.163 0 0 1 3.7-1.56 5.148 5.148 0 0 1 3.686 1.581 5.425 5.425 0 0 1 1.513 3.795Z"
    stroke-width="2" stroke-linecap="round" stroke-linejoin="round" stroke="#03DAC5"
    />
</svg>